<?xml version="1.0" encoding="utf-8"?>
<!-- Generator: Adobe Illustrator 18.0.0, SVG Export Plug-In . SVG Version: 6.00 Build 0)  -->
<!DOCTYPE svg PUBLIC "-//W3C//DTD SVG 1.1//EN" "http://www.w3.org/Graphics/SVG/1.1/DTD/svg11.dtd">
<svg version="1.1" xmlns="http://www.w3.org/2000/svg" xmlns:xlink="http://www.w3.org/1999/xlink" x="0px" y="0px"
	 viewBox="0 0 226.2 273.3" enable-background="new 0 0 226.2 273.3" xml:space="preserve">
<g id="Back_of_Hat">
	<path fill="#736357" stroke="#000000" stroke-width="1.0769" stroke-linejoin="round" stroke-miterlimit="10" d="M29.4,58.5
		c0,0,16.7,4.1,28.1,4.5c11.2,0.5,4.5-11.1,4.5-11.1S31.7,50.6,29.4,58.5z"/>
	<path fill="#736357" stroke="#000000" stroke-width="1.0769" stroke-linejoin="round" stroke-miterlimit="10" d="M189.2,44.9
		c0,0-15.7,7.1-26.9,9.5c-11,2.3-6.2-10.2-6.2-10.2S185.6,37.5,189.2,44.9z"/>
</g>
<g id="Robot">
	<path fill="#F9DA17" stroke="#000000" stroke-width="1.2307" stroke-miterlimit="10" d="M62.2,122.5c-3.5-1.4-9.1-3.7-12.8-3.4
		c-3.8,0.3-11.6,6.6-8.4,10.7c2.2,2.8,14.7,5.7,16.4,5C59.9,133.8,62.2,122.5,62.2,122.5z"/>
	<path fill="#F9DA17" stroke="#000000" stroke-width="1.2307" stroke-miterlimit="10" d="M54.6,133.7c-2.5-1.1-11.3-6.2-16.4-5
		c-6.9,1.5-9.9,10.5-7.3,12.8c2.6,2.3,20.2,4.7,20.2,4.7L54.6,133.7z"/>
	<path fill="#F9DA17" stroke="#000000" stroke-width="1.2307" stroke-miterlimit="10" d="M48.9,144.9c-3.4-0.8-15.8-6.4-22-2.9
		c-3.2,1.8-7.6,10.3-2.5,12.5c2.9,1.2,23.3,4.5,23.9-0.6C48.9,148.9,48.9,144.9,48.9,144.9z"/>
	<g id="Original_Arms_1_">
		<path fill="#FADB1D" stroke="#000000" stroke-width="1.0769" stroke-miterlimit="10" d="M181.8,231.3c0,0-3.5,8.9-1.1,10
			s4.6,0.8,5.9,0s0-8.9,0-8.9L181.8,231.3z"/>
		<path fill="#FADB1D" stroke="#000000" stroke-width="1.0769" stroke-miterlimit="10" d="M189.5,233.2c0,0-1.5,7.1,0,8.6
			c1.1,1.1,5.2,1.1,6.3,0c1.5-1.6,1.4-8.8-0.2-8.6C195.6,233.2,189.5,233.2,189.5,233.2z"/>
		<path fill="#FADB1D" stroke="#000000" stroke-width="1.0769" stroke-miterlimit="10" d="M199,228.9c0,0-0.8,9.7,0,11.3
			c0.8,1.6,7.3,1.9,8.9,0s-7.1-12.1-4.6-11.3C205.8,229.7,199,228.9,199,228.9z"/>
		<path fill="#FADB1D" stroke="#000000" stroke-width="1.0769" stroke-miterlimit="10" d="M158.5,123.1c3.1-1.2,7.9-3.2,11.2-3
			c3.4,0.3,10.1,5.8,7.4,9.3c-1.9,2.4-12.8,5-14.4,4.4C160.5,132.9,158.5,123.1,158.5,123.1z"/>
		<path fill="#FADB1D" stroke="#000000" stroke-width="1.0769" stroke-miterlimit="10" d="M165,133.8c2.2-0.9,9.9-5.4,14.4-4.4
			c6.1,1.3,8.7,9.2,6.4,11.2c-2.3,2-17.6,3.3-17.6,3.3L165,133.8z"/>
		<path fill="#FADB1D" stroke="#000000" stroke-width="1.0769" stroke-miterlimit="10" d="M169.1,144.6c3-0.7,13.8-5.6,19.3-2.5
			c2.8,1.6,6.6,9,2.2,10.9c-2.5,1.1-20.4,3.9-20.9-0.5S169.1,144.6,169.1,144.6z"/>
		<path fill="#FADB1D" stroke="#000000" stroke-width="0.9757" stroke-miterlimit="10" d="M172,153.7c5.9-0.2,16.2-2,21.3,0.2
			c4.3,1.9,6.1,14.5,2.4,14.3c-4.1-0.2-19.9,1.4-22.4-0.6C170.9,165.6,172,153.7,172,153.7z"/>
		<path fill="#FADB1D" stroke="#000000" stroke-width="1.0769" stroke-miterlimit="10" d="M173.1,168c6.5-0.2,17.9-2.2,23.5,0.3
			c4.8,2.1,6.7,16,2.6,15.8c-4.6-0.3-21.9,1.5-24.7-0.7C171.9,181.2,173.1,168,173.1,168z"/>
		<path fill="#FADB1D" stroke="#000000" stroke-width="1.0769" stroke-miterlimit="10" d="M175.5,183c2.1-0.5,7.9-0.6,13.6-0.7
			c4.7-0.1,12.9-0.7,14.8,5.1c0.8,2.4,2.8,12.4-2.2,12.7c-3.5,0.2-25.8,5.4-25.8-2S175.5,183,175.5,183z"/>
		<path fill="#FADB1D" stroke="#000000" stroke-width="1.0769" stroke-miterlimit="10" d="M175.8,200.3c0.5-1,7.3-2.2,14.9-2
			c7.2,0.2,15.2,0.3,15.7,6c1.1,12.6,0,13.4-11,13c-11-0.4-20.6,4.5-20.4-2.9C175.3,207.1,175.8,200.3,175.8,200.3z"/>
		<path fill="#FADB1D" stroke="#000000" stroke-width="1.0769" stroke-miterlimit="10" d="M175.8,216.2c2.4-0.4,9.2-1,15.4-0.9
			c10.1,0.1,14.1,1.1,15.4,6.1c1.6,6.1,2.7,13-3,13.2c-11.5,0.5-28.7,3.5-28.8-6C174.7,219.1,175.8,216.2,175.8,216.2z"/>
		<path display="none" fill="#FADB1D" stroke="#000000" stroke-width="1.0769" stroke-miterlimit="10" d="M38.3,231.3
			c0,0,3.5,8.9,1.1,10s-4.6,0.8-5.9,0c-1.3-0.8,0-8.9,0-8.9L38.3,231.3z"/>
		<path display="none" fill="#FADB1D" stroke="#000000" stroke-width="1.0769" stroke-miterlimit="10" d="M30.6,233.2
			c0,0,1.5,7.1,0,8.6c-1.1,1.1-5.2,1.1-6.3,0c-1.5-1.6-1.4-8.8,0.2-8.6C24.5,233.2,30.6,233.2,30.6,233.2z"/>
		<path display="none" fill="#FADB1D" stroke="#000000" stroke-width="1.0769" stroke-miterlimit="10" d="M21.1,228.9
			c0,0,0.8,9.7,0,11.3c-0.8,1.6-7.3,1.9-8.9,0s7.1-12.1,4.6-11.3C14.4,229.7,21.1,228.9,21.1,228.9z"/>
		<path display="none" fill="#FADB1D" stroke="#000000" stroke-width="1.0769" stroke-miterlimit="10" d="M61.7,123.1
			c-3.1-1.2-7.9-3.2-11.2-3c-3.4,0.3-10.1,5.8-7.4,9.3c1.9,2.4,12.8,5,14.4,4.4C59.6,132.9,61.7,123.1,61.7,123.1z"/>
		<path display="none" fill="#FADB1D" stroke="#000000" stroke-width="1.0769" stroke-miterlimit="10" d="M55.1,133.8
			c-2.2-0.9-9.9-5.4-14.4-4.4c-6.1,1.3-8.7,9.2-6.4,11.2c2.3,2,17.6,3.3,17.6,3.3L55.1,133.8z"/>
		<path display="none" fill="#FADB1D" stroke="#000000" stroke-width="1.0769" stroke-miterlimit="10" d="M51,144.6
			c-3-0.7-13.8-5.6-19.3-2.5c-2.8,1.6-6.6,9-2.2,10.9c2.5,1.1,20.4,3.9,20.9-0.5S51,144.6,51,144.6z"/>
		<path display="none" fill="#FADB1D" stroke="#000000" stroke-width="0.9757" stroke-miterlimit="10" d="M48.1,153.7
			c-5.9-0.2-16.2-2-21.3,0.2c-4.3,1.9-6.1,14.5-2.4,14.3c4.1-0.2,19.9,1.4,22.4-0.6C49.2,165.6,48.1,153.7,48.1,153.7z"/>
		<path display="none" fill="#FADB1D" stroke="#000000" stroke-width="1.0769" stroke-miterlimit="10" d="M47,168
			c-6.5-0.2-17.9-2.2-23.5,0.3c-4.8,2.1-6.7,16-2.6,15.8c4.6-0.3,21.9,1.5,24.7-0.7C48.3,181.2,47,168,47,168z"/>
		<path display="none" fill="#FADB1D" stroke="#000000" stroke-width="1.0769" stroke-miterlimit="10" d="M44.7,183
			c-2.1-0.5-7.9-0.6-13.6-0.7c-4.7-0.1-12.9-0.7-14.8,5.1c-0.8,2.4-2.8,12.4,2.2,12.7c3.5,0.2,25.8,5.4,25.8-2S44.7,183,44.7,183z"
			/>
		<path display="none" fill="#FADB1D" stroke="#000000" stroke-width="1.0769" stroke-miterlimit="10" d="M44.3,200.3
			c-0.5-1-7.3-2.2-14.9-2c-7.2,0.2-15.2,0.3-15.7,6c-1.1,12.6,0,13.4,11,13c11-0.4,20.6,4.5,20.4-2.9
			C44.8,207.1,44.3,200.3,44.3,200.3z"/>
		<path display="none" fill="#FADB1D" stroke="#000000" stroke-width="1.0769" stroke-miterlimit="10" d="M44.3,216.2
			c-2.4-0.4-9.2-1-15.4-0.9c-10.1,0.1-14.1,1.1-15.4,6.1c-1.6,6.1-2.7,13,3,13.2c11.5,0.5,28.7,3.5,28.8-6
			C45.4,219.1,44.3,216.2,44.3,216.2z"/>
	</g>
	<path fill="#666666" stroke="#000000" stroke-width="1.0769" stroke-miterlimit="10" d="M53.7,250.4c2.4,2.2-5.7,21.5-2.2,21.8
		s10.5,2.4,12.1,0s0.5-22.3,1.6-19.4S53.7,250.4,53.7,250.4z"/>
	<path fill="#666666" stroke="#000000" stroke-width="1.0769" stroke-miterlimit="10" d="M152.3,250.4c2.7,3.2-1.9,17.9,0,19.5
		c1.9,1.6,11.8,2.8,12.7,0.1s-1.6-19.6-1.6-19.6H152.3z"/>
	<path display="none" fill="#FCDB21" stroke="#000000" stroke-linejoin="round" stroke-miterlimit="10" d="M32,48.1
		c3.2-0.2,13.2,6.8,13.2,6.8l-4.5,9.8c0,0-14.8-8.3-11.5-8.3S32,48.1,32,48.1z"/>
	<path fill="#FCDB21" stroke="#000000" stroke-width="1.0769" stroke-miterlimit="10" d="M150.4,46.3c0,0,8.6-6.5,12.1-10
		c3.5,1.2,5.7,5.9,4.8,8.9c-0.8,3-10.5,10.2-10.5,10.2L150.4,46.3z"/>
	<path fill="#FCDB21" stroke="#000000" stroke-width="1.0769" stroke-miterlimit="10" d="M72.8,112c-7.7,4.3-27.8,30.8-29,44.9
		c-2.3,27.4-3,68.6-1.7,77.7c1.3,9.2-4.7,20.5,14.2,21.7c18.8,1.2,95.2-0.4,105.5-2.4c10.7-2,16.2,1.9,16.2-16.9s8.9-105.1-33-122.4
		C131.2,108.8,72.8,112,72.8,112z"/>
	<path fill="#FCDB21" stroke="#000000" stroke-width="1.0769" stroke-miterlimit="10" d="M61,39.1c2.2-6.2,8.1-12.4,17.2-11.8
		c9.2,0.5,48,0.5,53.8,0c15.1-1.3,24.8,12.9,25.3,19.4s9.7,38.2,2.7,46.3c-3.5,4-102.4,8.3-103.9,1.6C48.6,60.6,61,39.1,61,39.1z"/>
	<path fill="#FCDB21" stroke="#000000" stroke-width="1.0769" stroke-miterlimit="10" d="M162.2,75.1c3.7,9.8,6.5,32.1,3.9,32.8
		c-26.5,7-48.5,9.8-55,9.7c-6-0.1-54.1-2.7-58.7-8.1c-2.2-2.5-6.8-27,0.8-34.1c-0.4,6.8,6.2,5.6,6.2,5.6s80.3,2.2,87.2,1.1
		C157.7,80.3,162.2,75.1,162.2,75.1z"/>
	<g>
		<circle fill="#FFFFFF" stroke="#000000" stroke-width="1.0769" stroke-miterlimit="10" cx="80.6" cy="58.8" r="16.3"/>
		<path fill="#29ABE2" stroke="#000000" stroke-width="1.0769" stroke-linejoin="round" stroke-miterlimit="10" d="M82.7,59.6
			c-1.6,0-2.9-1.3-2.9-2.9c0-0.8,0.3-1.5,0.9-2.1c0,0,0,0-0.1,0c-2.3,0-4.1,1.9-4.1,4.1c0,2.3,1.9,4.1,4.1,4.1
			c2.3,0,4.1-1.9,4.1-4.1c0,0,0,0,0-0.1C84.3,59.3,83.5,59.6,82.7,59.6z"/>
		<circle fill="#FFFFFF" stroke="#000000" stroke-width="1.0769" stroke-miterlimit="10" cx="131.3" cy="58.8" r="16.3"/>
		<path fill="#29ABE2" stroke="#000000" stroke-width="1.0769" stroke-linejoin="round" stroke-miterlimit="10" d="M133.3,59.6
			c-1.6,0-2.9-1.3-2.9-2.9c0-0.8,0.3-1.5,0.9-2.1c0,0,0,0-0.1,0c-2.3,0-4.1,1.9-4.1,4.1c0,2.3,1.9,4.1,4.1,4.1
			c2.3,0,4.1-1.9,4.1-4.1c0,0,0,0,0-0.1C134.9,59.3,134.1,59.6,133.3,59.6z"/>
	</g>
</g>
<g id="Binoculars">
	
		<path fill="#333333" stroke="#000000" stroke-width="1.0769" stroke-linecap="round" stroke-linejoin="round" stroke-miterlimit="10" d="
		M77.3,154.6c0,0-1.7,0-2.2-1.6c-0.5-1.7,0-6,0-6s9.1,0,14.6,0c6.1,0,14.2,0,14.2,0s0.4,4.2,0,6c-0.4,1.6-2.2,1.6-2.2,1.6H77.3z"/>
	
		<path fill="#999999" stroke="#000000" stroke-width="1.0769" stroke-linecap="round" stroke-linejoin="round" stroke-miterlimit="10" d="
		M77.3,154.6c0,0-1.7,0-2.2-1.6c-0.5-1.7,0-6,0-6s9.1,0,14.6,0c6.1,0,14.2,0,14.2,0s0.4,4.2,0,6c-0.4,1.6-2.2,1.6-2.2,1.6H77.3z"/>
	
		<rect x="77.7" y="157.8" fill="#CCCCCC" stroke="#000000" stroke-width="1.0769" stroke-linecap="round" stroke-linejoin="round" stroke-miterlimit="10" width="23.7" height="8.6"/>
	
		<path fill="#666666" stroke="#000000" stroke-width="1.0769" stroke-linecap="round" stroke-linejoin="round" stroke-miterlimit="10" d="
		M103.6,178.2h-28v-12.9c0,0,6.4-1.1,13.8-1.1c8.2,0,14.2,1.1,14.2,1.1V178.2z"/>
	
		<path fill="#999999" stroke="#000000" stroke-width="1.0769" stroke-linecap="round" stroke-linejoin="round" stroke-miterlimit="10" d="
		M106.8,213.8H72.3l2.2-35.5c0,0,7.5-1.1,14.9-1.1c8.2,0,15.3,1.1,15.3,1.1L106.8,213.8z"/>
	
		<rect x="77.7" y="154.6" fill="#4D4D4D" stroke="#000000" stroke-width="1.0769" stroke-linecap="round" stroke-linejoin="round" stroke-miterlimit="10" width="23.7" height="3.2"/>
	
		<path fill="#4D4D4D" stroke="#000000" stroke-width="1.0769" stroke-linecap="round" stroke-linejoin="round" stroke-miterlimit="10" d="
		M107.9,222.4c0,0-1.7,3.2-18.4,3.2c-14,0-18.3-3.2-18.3-3.2s0-0.1,0-4.4c0-3.8,0-7.4,0-7.4s10.7,1.1,18.1,1.1
		c8.2,0,18.5-1.1,18.5-1.1s0,3.1,0,7.4C107.9,221.5,107.9,222.4,107.9,222.4z"/>
	
		<path fill="#999999" stroke="#000000" stroke-width="1.0769" stroke-linecap="round" stroke-linejoin="round" stroke-miterlimit="10" d="
		M107.9,222.4c0,0-9.2,1.1-18.4,1.1c-7.8,0-18.3-1.1-18.3-1.1s-1.1-2.3-1.1-6.6c0-3.8,1.1-7.4,1.1-7.4s10.7,1.1,18.1,1.1
		c8.2,0,18.5-1.1,18.5-1.1s1.1,3.1,1.1,7.4C109,220.7,107.9,222.4,107.9,222.4z"/>
	
		<path fill="#333333" stroke="#000000" stroke-width="1.0769" stroke-linecap="round" stroke-linejoin="round" stroke-miterlimit="10" d="
		M116.1,154.6c0,0-1.7,0-2.2-1.6c-0.5-1.7,0-6,0-6s9.1,0,14.6,0c6.1,0,14.2,0,14.2,0s0.4,4.2,0,6c-0.4,1.6-2.2,1.6-2.2,1.6H116.1z"
		/>
	
		<path fill="#999999" stroke="#000000" stroke-width="1.0769" stroke-linecap="round" stroke-linejoin="round" stroke-miterlimit="10" d="
		M116.1,154.6c0,0-1.7,0-2.2-1.6c-0.5-1.7,0-6,0-6s9.1,0,14.6,0c6.1,0,14.2,0,14.2,0s0.4,4.2,0,6c-0.4,1.6-2.2,1.6-2.2,1.6H116.1z"
		/>
	
		<rect x="116.5" y="157.8" fill="#CCCCCC" stroke="#000000" stroke-width="1.0769" stroke-linecap="round" stroke-linejoin="round" stroke-miterlimit="10" width="23.7" height="8.6"/>
	
		<path fill="#666666" stroke="#000000" stroke-width="1.0769" stroke-linecap="round" stroke-linejoin="round" stroke-miterlimit="10" d="
		M142.3,178.2h-28v-12.9c0,0,6.4-1.1,13.8-1.1c8.2,0,14.2,1.1,14.2,1.1V178.2z"/>
	
		<path fill="#999999" stroke="#000000" stroke-width="1.0769" stroke-linecap="round" stroke-linejoin="round" stroke-miterlimit="10" d="
		M145.6,213.8h-34.5l2.2-35.5c0,0,7.5-1.1,14.9-1.1c8.2,0,15.3,1.1,15.3,1.1L145.6,213.8z"/>
	
		<rect x="116.5" y="154.6" fill="#4D4D4D" stroke="#000000" stroke-width="1.0769" stroke-linecap="round" stroke-linejoin="round" stroke-miterlimit="10" width="23.7" height="3.2"/>
	
		<path fill="#4D4D4D" stroke="#000000" stroke-width="1.0769" stroke-linecap="round" stroke-linejoin="round" stroke-miterlimit="10" d="
		M146.7,222.4c0,0-1.7,3.2-18.4,3.2c-14,0-18.3-3.2-18.3-3.2s0-0.1,0-4.4c0-3.8,0-7.4,0-7.4s10.7,1.1,18.1,1.1
		c8.2,0,18.5-1.1,18.5-1.1s0,3.1,0,7.4C146.7,221.5,146.7,222.4,146.7,222.4z"/>
	
		<path fill="#999999" stroke="#000000" stroke-width="1.0769" stroke-linecap="round" stroke-linejoin="round" stroke-miterlimit="10" d="
		M146.7,222.4c0,0-9.2,1.1-18.4,1.1c-7.8,0-18.3-1.1-18.3-1.1s-1.1-2.3-1.1-6.6c0-3.8,1.1-7.4,1.1-7.4s10.7,1.1,18.1,1.1
		c8.2,0,18.5-1.1,18.5-1.1s1.1,3.1,1.1,7.4C147.7,220.7,146.7,222.4,146.7,222.4z"/>
	<path fill="#666666" stroke="#000000" stroke-linecap="round" stroke-linejoin="round" stroke-miterlimit="10" d="M114.5,178.2
		c0,0-2.2,1.1-4.8,1.1c-2.6,0-5.2-1.1-5.2-1.1v-12.9c0,0,2.6-1.1,5.2-1.1c2.6,0,4.8,1.1,4.8,1.1V178.2z"/>
	
		<line fill="none" stroke="#000000" stroke-linecap="round" stroke-linejoin="round" stroke-miterlimit="10" x1="106.5" y1="164.3" x2="106.5" y2="178.3"/>
	
		<line fill="none" stroke="#000000" stroke-linecap="round" stroke-linejoin="round" stroke-miterlimit="10" x1="109.5" y1="164.3" x2="109.5" y2="178.3"/>
	
		<line fill="none" stroke="#000000" stroke-linecap="round" stroke-linejoin="round" stroke-miterlimit="10" x1="112.5" y1="164.3" x2="112.5" y2="178.3"/>
	<path fill="none" stroke="#000000" stroke-linecap="round" stroke-linejoin="round" stroke-miterlimit="10" d="M114.5,178.2
		c0,0-2.2,1.1-4.8,1.1c-2.6,0-5.2-1.1-5.2-1.1v-12.9c0,0,2.6-1.1,5.2-1.1c2.6,0,4.8,1.1,4.8,1.1V178.2z"/>
</g>
<g id="Other_Arms">
	<path fill="#F9DA17" stroke="#000000" stroke-width="1.115" stroke-miterlimit="10" d="M40.4,152.2c-2.9-2-20.6,0.2-24,6.5
		c-2.6,4.7,0.4,14.9,4.5,15.9c6.6,1.6,21.2-8.3,22.8-11.6C45.4,159.9,43.2,154.1,40.4,152.2z"/>
	<path fill="#F9DA17" stroke="#000000" stroke-width="1.2307" stroke-miterlimit="10" d="M38.3,158.5c-6.4,0-19.1,9.7-20.8,16.5
		c-1.4,5.8,9.2,13.4,13.9,13.1c7.1-0.4,15.8-17.8,15.1-21.7C45.2,158.5,38.3,158.5,38.3,158.5z"/>
	<path fill="#F9DA17" stroke="#000000" stroke-width="1.2307" stroke-miterlimit="10" d="M42.1,161.9c-2.4,0.4-7.2,6.6-10.2,12.4
		c-2.4,4.8-7.1,13-2.1,17.8c2.1,2,11.4,9,14.1,4c1.9-3.5,16.4-18.8,12.2-26.1C54.5,167.1,46.3,161.1,42.1,161.9z"/>
	<path fill="#F9DA17" stroke="#000000" stroke-width="1.2307" stroke-miterlimit="10" d="M50.2,166.6c-1.2,0.2-4.5,7.5-6.4,15.9
		c-1.8,8.1-4,15.9,2.2,18.1c13.6,4.8,14.9,4.8,17.6-7.6c2.7-12.3,10.2-19.6,2.6-23.4C60.5,166.9,57.4,165.2,50.2,166.6z"/>
	<path fill="#F9DA17" stroke="#000000" stroke-width="1.2307" stroke-miterlimit="10" d="M81.5,177.7c0,0,10.8-1.8,11.4,1.2
		c0.6,3-0.2,5.3-1.4,6.6c-1.2,1.3-9.9-2.1-9.9-2.1L81.5,177.7z"/>
	<path fill="#F9DA17" stroke="#000000" stroke-width="1.2307" stroke-miterlimit="10" d="M82.6,186.8c0,0,8.3,0,9.6,2.1
		c1,1.5,0,6.1-1.5,7c-2.1,1.3-10.2-0.6-9.6-2.3C81.2,193.6,82.6,186.8,82.6,186.8z"/>
	<path fill="#F9DA17" stroke="#000000" stroke-width="1.2307" stroke-miterlimit="10" d="M73.7,195.3c0,0,11,1.4,12.6,2.7
		c1.6,1.3,0.3,8.6-2.1,9.9c-2.5,1.3-11.8-10.8-11.5-7.9C73,203,73.7,195.3,73.7,195.3z"/>
	<path fill="#F9DA17" stroke="#000000" stroke-width="1.2307" stroke-miterlimit="10" d="M65.2,168.4c-1,2.6-3.3,10.1-4.7,17
		c-2.3,11.2-2.2,16,3.1,18.7c6.4,3.2,13.8,6.2,15.5-0.2c3.4-12.7,10.9-31.2,0.2-33.6C68.7,167.9,65.2,168.4,65.2,168.4z"/>
</g>
<g id="Safari_Hat">
	
		<ellipse transform="matrix(-0.9966 8.250234e-02 -8.250234e-02 -0.9966 211.7578 -1.6913)" fill="#736357" stroke="#000000" stroke-width="0.9552" stroke-linejoin="round" stroke-miterlimit="10" cx="105.9" cy="3.5" rx="6.6" ry="3.5"/>
	<path fill="#D4B299" stroke="#000000" stroke-width="1.0769" stroke-miterlimit="10" d="M155.4,28.9c1.5,18.2-95.1,26.2-96.7,8
		c-1.4-17.2,19.2-31,45.9-33.2C131.3,1.4,154,11.7,155.4,28.9z"/>
	<g>
		<path fill="#D4B299" d="M188.4,41.9c2.3,1.9,1.8,3.5-1.2,3.5c0,0-48.7,1.1-78.6,3.6c-33,2.7-78.1,9.4-78.1,9.4
			c-2.9,0.4-3.9-1.2-2.2-3.6c0,0,1.5-2.1,5.5-4.9c9.6-6.8,17.1-10.4,17.1-10.4c2.7-1.3,7.3-2.7,10.2-3.1c0,0,27.2-4.1,45.5-5.6
			c20.5-1.7,46.8-2.1,46.8-2.1c3,0,7.7,0.6,10.6,1.4c0,0,7.9,2.3,17.7,7.5C186.1,40,188.4,41.9,188.4,41.9z"/>
		<path fill="none" stroke="#000000" stroke-width="1.0769" stroke-miterlimit="10" d="M188.4,41.9c2.3,1.9,1.8,3.5-1.2,3.5
			c0,0-48.7,1.1-78.6,3.6c-33,2.7-78.1,9.4-78.1,9.4c-2.9,0.4-3.9-1.2-2.2-3.6c0,0,1.5-2.1,5.5-4.9c9.6-6.8,17.1-10.4,17.1-10.4
			c2.7-1.3,7.3-2.7,10.2-3.1c0,0,27.2-4.1,45.5-5.6c20.5-1.7,46.8-2.1,46.8-2.1c3,0,7.7,0.6,10.6,1.4c0,0,7.9,2.3,17.7,7.5
			C186.1,40,188.4,41.9,188.4,41.9z"/>
	</g>
	<path fill="#736357" stroke="#000000" stroke-width="1.0769" stroke-linejoin="round" stroke-miterlimit="10" d="M58.2,29.9
		c0,0,42.7-10.9,96.7-8c0,0,1.7,0.6,2.2,6.7c0,0-43.5-1.1-99.4,8.2C57.7,36.8,56.8,31.3,58.2,29.9z"/>
	<g>
		<path d="M107.9,3.3c0,0,0.4-0.1,1-0.1c0.6,0,1.5-0.1,2.6,0c1.1,0.1,2.3,0.3,3.6,0.6c0.7,0.2,1.3,0.4,2,0.6c0.7,0.3,1.3,0.5,2,0.9
			c0.6,0.4,1.3,0.7,1.9,1.1c0.6,0.4,1.2,0.8,1.7,1.3c0.3,0.2,0.5,0.4,0.7,0.7c0.2,0.3,0.4,0.5,0.6,0.7c0.4,0.5,0.8,0.9,1.1,1.4
			c0.3,0.4,0.6,0.9,0.8,1.3c0.2,0.4,0.3,0.8,0.5,1c0.2,0.6,0.4,0.9,0.4,0.9c0,0,0,0.1,0,0.1c0,0,0,0-0.1,0c0,0-0.2-0.3-0.5-0.8
			c-0.2-0.3-0.3-0.6-0.6-0.9c-0.3-0.3-0.6-0.7-0.9-1.1c-0.3-0.4-0.7-0.8-1.1-1.2c-0.2-0.2-0.4-0.4-0.7-0.7c-0.2-0.2-0.5-0.4-0.7-0.6
			c-0.3-0.2-0.5-0.4-0.8-0.6c-0.3-0.2-0.6-0.4-0.9-0.6c-0.6-0.4-1.2-0.7-1.8-1c-0.6-0.3-1.3-0.6-1.9-0.9c-0.6-0.2-1.3-0.5-1.9-0.7
			c-1.2-0.4-2.4-0.7-3.5-0.9C109.3,3.4,107.9,3.4,107.9,3.3C107.9,3.4,107.9,3.4,107.9,3.3C107.9,3.3,107.9,3.3,107.9,3.3L107.9,3.3
			z"/>
	</g>
	<g>
		<path d="M102,3.9c0,0-0.3,0.1-0.9,0.4c-0.6,0.2-1.4,0.6-2.3,1c-0.5,0.2-1,0.4-1.5,0.7c-0.5,0.3-1.1,0.6-1.6,0.9
			c-0.6,0.3-1.1,0.7-1.7,1c-0.5,0.4-1.1,0.7-1.6,1.2c-0.5,0.4-1.1,0.8-1.6,1.3c-0.2,0.2-0.5,0.4-0.7,0.6c-0.2,0.2-0.4,0.5-0.7,0.7
			c-0.2,0.2-0.4,0.5-0.7,0.7c-0.2,0.2-0.4,0.5-0.6,0.7c-0.4,0.4-0.7,0.9-1,1.3c-0.3,0.4-0.6,0.8-0.8,1.2c-0.2,0.4-0.4,0.7-0.5,1
			c-0.3,0.5-0.5,0.8-0.5,0.8l0,0c0,0,0,0-0.1,0c0,0,0,0,0-0.1c0,0,0.1-0.3,0.3-0.9c0.1-0.3,0.2-0.6,0.4-1c0.2-0.4,0.4-0.8,0.7-1.3
			c0.2-0.5,0.6-0.9,0.9-1.4c0.2-0.2,0.4-0.5,0.5-0.8c0.2-0.2,0.4-0.5,0.6-0.7c0.2-0.2,0.4-0.5,0.7-0.7c0.2-0.2,0.5-0.5,0.7-0.7
			c0.5-0.5,1.1-0.9,1.6-1.3c0.6-0.4,1.2-0.8,1.7-1.2c0.6-0.3,1.2-0.7,1.8-1c1.2-0.6,2.3-1,3.3-1.4C100.6,4,102,3.8,102,3.9
			C102,3.8,102.1,3.8,102,3.9C102.1,3.9,102.1,3.9,102,3.9L102,3.9z"/>
	</g>
	<g>
		<path fill="#C69C6D" d="M85.8,33.6c0,0.6-0.4,1.1-1,1.2L81.6,35c-0.6,0-1.1-0.4-1.2-1l-0.7-8.6c0-0.6,0.4-1.1,1-1.2l3.2-0.3
			c0.6,0,1.1,0.4,1.2,1L85.8,33.6z"/>
		
			<path fill="none" stroke="#000000" stroke-width="1.0769" stroke-linecap="round" stroke-linejoin="round" stroke-miterlimit="10" d="
			M85.8,33.6c0,0.6-0.4,1.1-1,1.2L81.6,35c-0.6,0-1.1-0.4-1.2-1l-0.7-8.6c0-0.6,0.4-1.1,1-1.2l3.2-0.3c0.6,0,1.1,0.4,1.2,1
			L85.8,33.6z"/>
	</g>
	<g>
		<path fill="#C69C6D" d="M133,29.7c0,0.6-0.4,1.1-1,1.2l-3.2,0.3c-0.6,0-1.1-0.4-1.2-1l-0.7-8.6c0-0.6,0.4-1.1,1-1.2l3.2-0.3
			c0.6,0,1.1,0.4,1.2,1L133,29.7z"/>
		
			<path fill="none" stroke="#000000" stroke-width="1.0769" stroke-linecap="round" stroke-linejoin="round" stroke-miterlimit="10" d="
			M133,29.7c0,0.6-0.4,1.1-1,1.2l-3.2,0.3c-0.6,0-1.1-0.4-1.2-1l-0.7-8.6c0-0.6,0.4-1.1,1-1.2l3.2-0.3c0.6,0,1.1,0.4,1.2,1L133,29.7
			z"/>
	</g>
	<g>
		<path d="M31.9,53.9c0,0,1.5-0.4,4.2-1c2.7-0.6,6.5-1.5,11.1-2.4c2.3-0.4,4.8-0.9,7.5-1.4c2.7-0.5,5.4-1,8.4-1.4
			c2.9-0.5,5.9-0.9,9-1.3c3.1-0.5,6.2-0.8,9.3-1.3c6.2-0.7,12.5-1.3,18.3-1.9c2.9-0.3,5.8-0.4,8.4-0.6c2.7-0.2,5.2-0.3,7.6-0.5
			c4.7-0.3,8.6-0.3,11.4-0.4c2.7-0.1,4.3-0.1,4.3-0.1c0,0,0.1,0,0.1,0.1c0,0,0,0.1-0.1,0.1c0,0-1.6,0.1-4.3,0.3
			c-1.4,0.1-3,0.2-4.9,0.3c-1.9,0.1-4,0.3-6.4,0.5c-2.3,0.2-4.9,0.4-7.6,0.6c-2.7,0.2-5.5,0.5-8.4,0.8c-5.8,0.6-12.1,1.3-18.3,2
			c-3.1,0.4-6.2,0.8-9.3,1.2c-3.1,0.4-6.1,0.8-9,1.3c-5.8,0.8-11.2,1.7-15.8,2.5C38.1,52.7,31.9,54,31.9,54
			C31.9,54,31.9,54,31.9,53.9C31.9,53.9,31.9,53.9,31.9,53.9z"/>
	</g>
</g>
</svg>
