<?xml version="1.0" encoding="utf-8"?>
<!-- Generator: Adobe Illustrator 18.1.0, SVG Export Plug-In . SVG Version: 6.00 Build 0)  -->
<!DOCTYPE svg PUBLIC "-//W3C//DTD SVG 1.1//EN" "http://www.w3.org/Graphics/SVG/1.1/DTD/svg11.dtd">
<svg version="1.1" id="Layer_1" xmlns="http://www.w3.org/2000/svg" xmlns:xlink="http://www.w3.org/1999/xlink" x="0px" y="0px"
	 viewBox="0 83 40 34" enable-background="new 0 83 40 34" xml:space="preserve">
<g id="icomoon-ignore">
</g>
<g>
	<path fill="#7D7D7D" d="M10.1,117c-2.2,0-4.3-1-6.3-3.1c-3.6-3.7-3.3-8.6,0.7-12.9c3.2-3.4,14.1-14.3,14.2-14.4
		c0.5-0.5,1.2-0.5,1.7,0c0.5,0.5,0.5,1.2,0,1.7c-0.1,0.1-10.9,11-14.1,14.4c-1.5,1.6-2.4,3.3-2.6,5c-0.1,1.7,0.5,3.2,1.8,4.6
		c1.7,1.7,3.3,2.5,4.9,2.4c1.5-0.1,3.2-1,4.9-2.6c4.8-4.6,12.5-12.1,18.2-18c1.4-1.5,2.1-2.9,2.1-4.1c0-1-0.5-2-1.4-3
		c-0.9-0.9-1.9-1.4-3-1.4c0,0,0,0-0.1,0c-1.4,0-2.8,0.7-4.3,2.1l-14,14.1l0,0c-0.5,0.5-0.8,1-0.8,1.6s0.3,1.2,0.8,1.6
		c0.7,0.6,2,1.5,3.6,0.1l10.9-10.9c0.5-0.5,1.2-0.5,1.7,0s0.5,1.2,0,1.7L18,106.7c0,0,0,0-0.1,0.1c-1.1,1-2.3,1.4-3.6,1.3
		c-1.1-0.1-2.2-0.6-3.2-1.5c-1-0.9-1.5-2.1-1.5-3.3c0-1.2,0.5-2.3,1.5-3.3l14-14.1c0,0,0,0,0,0c1.9-1.9,4-2.8,6-2.8
		c1.7,0,3.4,0.8,4.7,2.2c1.4,1.5,2.1,3,2.1,4.7c0,1.9-1,3.8-2.8,5.7c-5.7,6-13.4,13.5-18.2,18.1c-2.1,2-4.3,3.1-6.4,3.2
		C10.4,117,10.3,117,10.1,117z"/>
</g>
</svg>
