<?xml version="1.0" encoding="utf-8"?>
<!-- Generator: Adobe Illustrator 19.0.1, SVG Export Plug-In . SVG Version: 6.00 Build 0)  -->
<!DOCTYPE svg PUBLIC "-//W3C//DTD SVG 1.1//EN" "http://www.w3.org/Graphics/SVG/1.1/DTD/svg11.dtd">
<svg version="1.1" id="Layer_1" xmlns="http://www.w3.org/2000/svg" xmlns:xlink="http://www.w3.org/1999/xlink" x="0px" y="0px"
	 viewBox="228 60.1 832 831.9" enable-background="new 228 60.1 832 831.9" xml:space="preserve">
<g id="icomoon-ignore">
</g>
<path fill="#5D5D5D" d="M644,60.1c-229.8,0-416,186.2-416,416s186.2,416,416,416s416-186.2,416-416S873.8,60.1,644,60.1z
	 M876.3,357.9L572.7,661.4c-7.6,7.6-19.9,7.6-27.6,0l-6.1-6.1l0,0L372,487.2c-7.6-7.6-7.6-20,0-27.6l41.4-41.4
	c7.6-7.6,20-7.6,27.6,0l118,118.9l248.2-248.2c7.6-7.6,20-7.6,27.6,0l41.4,41.4C883.9,337.9,883.9,350.3,876.3,357.9L876.3,357.9z"
	/>
</svg>
