<?xml version="1.0" encoding="utf-8"?>
<!-- Generator: Adobe Illustrator 18.1.0, SVG Export Plug-In . SVG Version: 6.00 Build 0)  -->
<!DOCTYPE svg PUBLIC "-//W3C//DTD SVG 1.1//EN" "http://www.w3.org/Graphics/SVG/1.1/DTD/svg11.dtd">
<svg version="1.1" xmlns="http://www.w3.org/2000/svg" xmlns:xlink="http://www.w3.org/1999/xlink" x="0px" y="0px"
	 viewBox="0 0 31.2 20" enable-background="new 0 0 31.2 20" xml:space="preserve">
<g id="Background">
</g>
<g id="Layer_1">
	<path fill="#665D58" d="M29.4,3.3C29.4,1.4,27.8,0,26,0c-1.8,0-3.3,1.6-3.3,3.4c0,1.8,1.6,3.3,3.4,3.3C28,6.7,29.4,5.1,29.4,3.3z"
		/>
	<path fill="#665D58" d="M30.5,10.3c-0.4-1.7-1.6-3-1.7-3.1C28.2,8,28.1,14,26.1,14c-1.9,0-2.2-6-2.8-6.7c0,0-1,0.7-1.6,3.2
		c-0.7,2.9-0.3,8.9-0.3,8.9s2.7,0.6,5,0.6c2.4,0,4.4-0.8,4.4-0.8S31,12.1,30.5,10.3z M24.7,15.5l0.5-3.3l0.4-3.3
		c0,0-0.5-0.5-0.5-0.9c0.1-0.4,1-0.8,1-0.8S27,7.6,27,8c0.1,0.4-0.5,0.9-0.5,0.9l0.4,3.5l0.4,3.1L24.7,15.5z"/>
	<polygon fill="#665D58" points="25,13.2 27.1,13.3 28.4,15.7 23.8,15.6 	"/>
	<g>
		<path fill="#6AAD0A" d="M10.1,1.5c4.7,0,8.5,3.8,8.5,8.5s-3.8,8.5-8.5,8.5c-4.7,0-8.5-3.8-8.5-8.5S5.4,1.5,10.1,1.5 M10.1,0
			c-5.5,0-10,4.5-10,10c0,5.5,4.5,10,10,10c5.5,0,10-4.5,10-10C20.1,4.5,15.6,0,10.1,0L10.1,0z"/>
	</g>
</g>
</svg>
