<?xml version="1.0" encoding="utf-8"?>
<!-- Generator: Adobe Illustrator 18.1.0, SVG Export Plug-In . SVG Version: 6.00 Build 0)  -->
<!DOCTYPE svg PUBLIC "-//W3C//DTD SVG 1.1//EN" "http://www.w3.org/Graphics/SVG/1.1/DTD/svg11.dtd">
<svg version="1.1" id="Layer_1" xmlns="http://www.w3.org/2000/svg" xmlns:xlink="http://www.w3.org/1999/xlink" x="0px" y="0px"
	 viewBox="0 83 40 34" enable-background="new 0 83 40 34" xml:space="preserve">
<g id="icomoon-ignore">
</g>
<path fill="#7D7D7D" d="M20,83C9.3,83,0.6,89.5,0.6,97.6c0,5,3.4,9.4,8.5,12.1c0,0,0,0.1,0,0.1c0,2.2-1.6,4.5-2.3,5.8h0
	c-0.1,0.1-0.1,0.3-0.1,0.4c0,0.6,0.5,1.1,1.1,1.1c0.1,0,0.3,0,0.3,0c3.8-0.6,7.4-4.1,8.2-5.1c1.2,0.2,2.5,0.3,3.7,0.3
	c10.7,0,19.4-6.5,19.4-14.6S30.7,83,20,83L20,83z M20,109.7c-1.1,0-2.3-0.1-3.4-0.3c-0.1,0-0.2,0-0.4,0c-0.7,0-1.4,0.3-1.9,0.9
	c-0.5,0.6-2,2-3.7,3.1c0.5-1.1,0.8-2.3,0.9-3.6c0-0.1,0-0.2,0-0.2c0-0.9-0.5-1.7-1.3-2.2c-4.5-2.3-7.2-6-7.2-9.9
	c0-6.7,7.6-12.1,17-12.1s17,5.4,17,12.1S29.4,109.7,20,109.7z"/>
</svg>
