<?xml version="1.0" encoding="utf-8"?>
<!-- Generator: Adobe Illustrator 18.1.0, SVG Export Plug-In . SVG Version: 6.00 Build 0)  -->
<!DOCTYPE svg PUBLIC "-//W3C//DTD SVG 1.1//EN" "http://www.w3.org/Graphics/SVG/1.1/DTD/svg11.dtd">
<svg version="1.1" id="Layer_1" xmlns="http://www.w3.org/2000/svg" xmlns:xlink="http://www.w3.org/1999/xlink" x="0px" y="0px"
	 viewBox="22.4 103.6 35 35" enable-background="new 22.4 103.6 35 35" xml:space="preserve">
<g id="icomoon-ignore">
</g>
<polygon fill="#FFFFFF" stroke="#7D7D7D" stroke-width="1.5038" stroke-linejoin="round" stroke-miterlimit="10" points="
	52.3,137.8 27.6,137.8 27.6,108.4 46.7,108.4 52.3,114 "/>
<polygon fill="#7D7D7D" stroke="#7D7D7D" stroke-width="1.5038" stroke-linejoin="round" stroke-miterlimit="10" points="46.7,114 
	52.3,114 46.7,108.4 "/>
<g>
	<path fill="#7D7D7D" d="M40.6,108.7c0-1.3-0.3-2.1-0.9-2.7c-0.5-0.5-1.1-0.7-2.1-0.7c-0.8,0-1.6,0.2-2.1,0.7c0,0,0,0,0,0
		c-0.6,0.6-1,1.6-1,2.9l0,13l0,0c0,0.5,0.1,0.8,0.4,1.1c0.3,0.3,0.7,0.4,1.1,0.4c0.6,0,1.6-0.2,1.7-1.6l0.1-10
		c0-0.4,0.4-0.8,0.8-0.8s0.8,0.4,0.8,0.8l-0.1,10.1c0,0,0,0,0,0.1c-0.1,0.9-0.4,1.7-1.1,2.3c-0.6,0.5-1.3,0.7-2.2,0.7
		c-0.9,0-1.7-0.3-2.2-0.9c-0.6-0.5-0.8-1.3-0.8-2.2l0-13c0,0,0,0,0,0c0-1.7,0.5-3.1,1.5-4.1c0.8-0.8,1.9-1.2,3.2-1.2
		c1.3,0,2.4,0.4,3.1,1.2c0.9,0.9,1.3,2.1,1.3,3.9"/>
</g>
</svg>
