<?xml version="1.0" encoding="utf-8"?>
<!-- Generator: Adobe Illustrator 18.1.0, SVG Export Plug-In . SVG Version: 6.00 Build 0)  -->
<!DOCTYPE svg PUBLIC "-//W3C//DTD SVG 1.1//EN" "http://www.w3.org/Graphics/SVG/1.1/DTD/svg11.dtd">
<svg version="1.1" id="Layer_1" xmlns="http://www.w3.org/2000/svg" xmlns:xlink="http://www.w3.org/1999/xlink" x="0px" y="0px"
	 viewBox="0 0 26.3 26.3" enable-background="new 0 0 26.3 26.3" xml:space="preserve">
<g id="_x33_4px_X" display="none">
	<g display="inline">
		<g>
			<g>
				<path fill="#7D7D7D" d="M75,51.8c-0.4,0.4-1.1,0.4-1.5,0L42.9,21.2c-0.4-0.4-0.4-1.1,0-1.5l0.4-0.4c0.4-0.4,1.1-0.4,1.5,0
					l30.6,30.6c0.4,0.4,0.4,1.1,0,1.5L75,51.8z"/>
			</g>
		</g>
	</g>
	<g display="inline">
		<g>
			<g>
				<path fill="#7D7D7D" d="M44.8,51.8c-0.4,0.4-1.1,0.4-1.5,0l-0.4-0.4c-0.4-0.4-0.4-1.1,0-1.5l30.6-30.6c0.4-0.4,1.1-0.4,1.5,0
					l0.4,0.4c0.4,0.4,0.4,1.1,0,1.5L44.8,51.8z"/>
			</g>
		</g>
	</g>
</g>
<g>
	<g>
		<g>
			<path fill="#7D7D7D" d="M25.3,25.3c-0.5,0.5-1.4,0.5-2-0.1L1.1,3C0.5,2.4,0.4,1.5,1,1s1.4-0.5,2,0.1l22.3,22.3
				C25.8,23.9,25.9,24.8,25.3,25.3z"/>
		</g>
	</g>
</g>
<g>
	<g>
		<g>
			<path fill="#7D7D7D" d="M3,25.3c-0.6,0.6-1.5,0.6-2,0.1s-0.5-1.4,0.1-2L23.3,1.1c0.6-0.6,1.5-0.6,2-0.1s0.5,1.4-0.1,2L3,25.3z"/>
		</g>
	</g>
</g>
<g id="_x32_4px_X" display="none">
	
		<line display="inline" fill="none" stroke="#7D7D7D" stroke-width="2.75" stroke-miterlimit="10" x1="41.9" y1="22.8" x2="66.3" y2="47.1"/>
	
		<line display="inline" fill="none" stroke="#7D7D7D" stroke-width="2.75" stroke-miterlimit="10" x1="66.3" y1="22.8" x2="41.9" y2="47.1"/>
</g>
</svg>
