<?xml version="1.0" encoding="utf-8"?>
<!-- Generator: Adobe Illustrator 18.1.0, SVG Export Plug-In . SVG Version: 6.00 Build 0)  -->
<!DOCTYPE svg PUBLIC "-//W3C//DTD SVG 1.1//EN" "http://www.w3.org/Graphics/SVG/1.1/DTD/svg11.dtd">
<svg version="1.1" id="Layer_1" xmlns="http://www.w3.org/2000/svg" xmlns:xlink="http://www.w3.org/1999/xlink" x="0px" y="0px"
	 viewBox="0 0 40.3 34" enable-background="new 0 0 40.3 34" xml:space="preserve">
<g id="icomoon-ignore" display="none">
</g>
<path display="none" fill="#7D7D7D" d="M31.6,15.5c0.4,0,0.7,0.1,0.9,0.4c0.3,0.3,0.4,0.6,0.4,0.9v13.3l3.6-3.8
	c0.3-0.3,0.6-0.4,0.9-0.4c0.4,0,0.7,0.1,0.9,0.4c0.3,0.3,0.4,0.6,0.4,0.9c0,0.4-0.1,0.7-0.4,0.9l-5.9,6c-0.3,0.3-0.6,0.4-0.9,0.4
	c-0.4,0-0.7-0.1-0.9-0.4l-6-6c-0.3-0.3-0.4-0.6-0.4-0.9c0-0.4,0.1-0.7,0.4-0.9c0.3-0.3,0.6-0.4,0.9-0.4c0.4,0,0.7,0.1,0.9,0.4
	l3.8,3.8V16.8c0-0.4,0.1-0.7,0.4-0.9C30.9,15.6,31.2,15.5,31.6,15.5z"/>
<g display="none">
	
		<path display="inline" fill="none" stroke="#7D7D7D" stroke-width="2.5" stroke-linecap="round" stroke-linejoin="round" stroke-miterlimit="10" d="
		M17.5,32.5v4.1c0,1.7,1.4,3,3,3h22c1.7,0,3-1.3,3-3v-4.1"/>
</g>
<g>
	<path fill="#FFFFFF" d="M35,34H5.3C2.4,34,0,31.6,0,28.7v-5.5C0,22.5,0.6,22,1.3,22s1.3,0.6,1.3,1.3v5.5c0,1.5,1.3,2.8,2.8,2.8H35
		c1.5,0,2.8-1.3,2.8-2.8v-5.5c0-0.7,0.6-1.3,1.3-1.3s1.3,0.6,1.3,1.3v5.5C40.3,31.6,37.9,34,35,34z"/>
</g>
<g>
	<path fill="#FFFFFF" d="M20.1,24.5c-0.7,0-1.3-0.6-1.3-1.3v-22c0-0.7,0.6-1.3,1.3-1.3s1.3,0.6,1.3,1.3v22
		C21.4,23.9,20.8,24.5,20.1,24.5z"/>
</g>
<g>
	<path fill="#FFFFFF" d="M20.1,25.4c-0.3,0-0.6-0.1-0.9-0.4l-8.9-8.9c-0.5-0.5-0.5-1.3,0-1.8s1.3-0.5,1.8,0l8,8l8-8
		c0.5-0.5,1.3-0.5,1.8,0s0.5,1.3,0,1.8L21,25.1C20.8,25.3,20.5,25.4,20.1,25.4z"/>
</g>
</svg>
