<?xml version="1.0" encoding="utf-8"?>
<!-- Generator: Adobe Illustrator 18.1.0, SVG Export Plug-In . SVG Version: 6.00 Build 0)  -->
<!DOCTYPE svg PUBLIC "-//W3C//DTD SVG 1.1//EN" "http://www.w3.org/Graphics/SVG/1.1/DTD/svg11.dtd">
<svg version="1.1" id="Layer_1" xmlns="http://www.w3.org/2000/svg" xmlns:xlink="http://www.w3.org/1999/xlink" x="0px" y="0px"
	 viewBox="0 0 35.3 34" enable-background="new 0 0 35.3 34" xml:space="preserve">
<g>
	<g>
		<path fill="#7D7D7D" d="M13.7,30.8c0,0.4-0.3,0.7-0.7,0.8L1.4,34c-0.1,0-0.2,0-0.2,0c-0.3,0-0.6-0.1-0.9-0.4
			C0,33.3-0.1,32.9,0,32.5l2.9-10.3C3,22,3.1,22,3.4,21.9C3.4,21.9,12.8,22.7,13.7,30.8z M5.2,22.8l-2.4,8.5l9.4-2
			C10.1,23.6,5.2,22.8,5.2,22.8z"/>
	</g>
	<g>
		<path fill="#7D7D7D" d="M12.7,31.6c-0.1,0-0.2,0-0.3-0.1c-0.4-0.1-0.7-0.5-0.8-0.9c-1.1-6.4-7.4-6.8-7.6-6.8c-0.5,0-0.9-0.3-1-0.7
			c-0.2-0.4-0.1-0.9,0.3-1.2L24.4,0.3c0.3-0.3,0.7-0.4,1-0.3c7.8,1.4,9.7,7.7,9.8,8c0.1,0.4,0,0.8-0.3,1.1L13.6,31.2
			C13.3,31.5,13,31.6,12.7,31.6z M6.4,21.9c2.5,0.7,5.6,2.6,6.9,6.3L32.8,8.1c-0.6-1.4-2.5-4.6-7.1-5.6L6.4,21.9z"/>
	</g>
	<path fill="#7D7D7D" d="M2.5,28.3c0,0,3.1,0.5,3.4,3.5l-4.7,1.1L2.5,28.3z"/>
</g>
</svg>
