<?xml version="1.0" encoding="utf-8"?>
<!-- Generator: Adobe Illustrator 18.0.0, SVG Export Plug-In . SVG Version: 6.00 Build 0)  -->
<!DOCTYPE svg PUBLIC "-//W3C//DTD SVG 1.1//EN" "http://www.w3.org/Graphics/SVG/1.1/DTD/svg11.dtd">
<svg version="1.1" id="Layer_1" xmlns="http://www.w3.org/2000/svg" xmlns:xlink="http://www.w3.org/1999/xlink" x="0px" y="0px"
	 viewBox="0 0 25 50" enable-background="new 0 0 25 50" xml:space="preserve">
<circle fill="#675E59" cx="12.5" cy="8.9" r="8.8"/>
<g>
	<path fill="#675E59" d="M4.7,16.3C4.7,16.3,4.7,16.3,4.7,16.3C4.7,16.3,4.7,16.3,4.7,16.3L4.7,16.3z"/>
	<path fill="#675E59" d="M24.4,24.6c-1-4.5-4-8.1-4.1-8.3c-1,2.2-2.5,14.8-5.1,18.9l-1.5-11.3c0,0,1.3-1.1,1.2-2.2
		c-0.1-1-2.2-1.9-2.4-1.9c-0.2,0.1-2.3,0.9-2.4,1.9c-0.1,1.1,1.2,2.2,1.2,2.2L9.8,35.2c-2.6-4.1-4.1-16.6-5.1-18.8
		c-0.2,0.3-3,3.8-4,8.3c-1.1,4.9-0.3,23.6-0.3,23.6s6.4,1.9,12.1,1.8c5.7,0.1,12.1-1.8,12.1-1.8S25.5,29.5,24.4,24.6z"/>
</g>
</svg>
