<?xml version="1.0" encoding="utf-8"?>
<!-- Generator: Adobe Illustrator 18.1.0, SVG Export Plug-In . SVG Version: 6.00 Build 0)  -->
<!DOCTYPE svg PUBLIC "-//W3C//DTD SVG 1.1//EN" "http://www.w3.org/Graphics/SVG/1.1/DTD/svg11.dtd">
<svg version="1.1" id="Layer_1" xmlns="http://www.w3.org/2000/svg" xmlns:xlink="http://www.w3.org/1999/xlink" x="0px" y="0px"
	 viewBox="0 0 30.4 34" enable-background="new 0 0 30.4 34" xml:space="preserve">
<g>
	<path fill="#7D7D7D" d="M15.2,2.2c2.4,0,4.6,1.2,6.2,3c1.5,1.8,2.5,4.9,2.5,7.6v2h3c0.7,0,1.3,0.6,1.3,1.5v14
		c0,0.8-0.6,1.5-1.3,1.5H3.5c-0.7,0-1.3-0.7-1.3-1.5v-14c0-0.8,0.6-1.5,1.3-1.5h0.2h2.9v-2.1c0-2.7,1-5.8,2.5-7.6
		C10.5,3.4,12.8,2.2,15.2,2.2L15.2,2.2C15.2,2.2,15.2,2.2,15.2,2.2 M9.6,14.9h1h9.1h1v-2c0-1.8-0.6-4-1.6-5.3l0,0v0
		c-1-1.2-2.5-2-3.9-2h0h0c-1.5,0-2.9,0.7-3.9,2v0c-1.1,1.3-1.6,3.5-1.6,5.3V14.9 M13,28.3h4.3c0,0,0,0,0,0c0.2,0,0.3-0.1,0.3-0.3
		c0-0.1,0-0.1-0.1-0.2l-1.4-3.4c0.9-0.4,1.5-1.2,1.5-2.3c0-1.4-1.1-2.5-2.5-2.5c-1.4,0-2.5,1.1-2.5,2.5c0,1,0.6,1.9,1.5,2.3
		l-1.5,3.5c0,0.1,0,0.2,0,0.3C12.9,28.2,12.9,28.3,13,28.3 M15.2,0L15.2,0c-3,0-5.8,1.4-7.9,3.8c-1.8,2.1-3,5.6-3,8.9H3.6H3.5
		c-1.9,0-3.5,1.6-3.5,3.6v14c0,2,1.6,3.6,3.5,3.6h23.4c1.9,0,3.5-1.6,3.5-3.6v-14c0-2-1.6-3.6-3.5-3.6H26c0-3.3-1.2-6.8-3-8.9
		C21,1.4,18.2,0,15.2,0L15.2,0z M13,8.8c0.6-0.7,1.4-1,2.1-1c0.8,0,1.5,0.4,2.1,1c0,0.1,0.1,0.1,0.1,0.2c0.6,0.7,1.1,2.3,1.1,3.8
		h-6.8c0-1.4,0.5-3,1.1-3.8C13,8.9,13,8.8,13,8.8L13,8.8z M15.2,22.4c0,0-0.1,0-0.1,0c-0.1,0-0.2-0.1-0.2-0.3c0-0.2,0.1-0.3,0.3-0.3
		c0.2,0,0.3,0.1,0.3,0.3c0,0.1-0.1,0.2-0.2,0.3C15.3,22.4,15.2,22.4,15.2,22.4L15.2,22.4z"/>
	<circle fill="#7D7D7D" cx="15.2" cy="22.2" r="0.9"/>
</g>
</svg>
