<?xml version="1.0" encoding="utf-8"?>
<!-- Generator: Adobe Illustrator 18.1.0, SVG Export Plug-In . SVG Version: 6.00 Build 0)  -->
<!DOCTYPE svg PUBLIC "-//W3C//DTD SVG 1.1//EN" "http://www.w3.org/Graphics/SVG/1.1/DTD/svg11.dtd">
<svg version="1.1" xmlns="http://www.w3.org/2000/svg" xmlns:xlink="http://www.w3.org/1999/xlink" x="0px" y="0px"
	 viewBox="0 0 35 35" enable-background="new 0 0 35 35" xml:space="preserve">
<g id="Layer_0_xA0_Image_1_">
	
		<image display="none" overflow="visible" width="446" height="443" id="Layer_0_xA0_Image_2_" xlink:href="663FCD6CD0E08B04.png"  transform="matrix(0.9999 0 0 0.9999 0 2.9996)">
	</image>
</g>
<g id="PDF">
	<g>
		<path fill="#FFFFFF" d="M3.6,34.7c-1.8,0-3.3-1.5-3.3-3.3V3.6c0-1.8,1.5-3.3,3.3-3.3h27.8c1.8,0,3.3,1.5,3.3,3.3v27.8
			c0,1.8-1.5,3.3-3.3,3.3H3.6z"/>
		<path fill="#BBBBBB" d="M31.4,0.6c1.7,0,3,1.4,3,3v27.8c0,1.7-1.4,3-3,3H3.6c-1.7,0-3-1.4-3-3V3.6c0-1.7,1.4-3,3-3H31.4 M31.4,0
			H3.6C1.6,0,0,1.6,0,3.6v27.8c0,2,1.6,3.6,3.6,3.6h27.8c2,0,3.6-1.6,3.6-3.6V3.6C35,1.6,33.4,0,31.4,0L31.4,0z"/>
	</g>
	<path fill="#D02428" d="M34.4,23.7v7.7c0,1.7-1.4,3-3,3H3.6c-1.7,0-3-1.4-3-3v-7.7"/>
	<g>
		<path fill="#FFFFFF" d="M6.2,33v-7.6h2.3l1.4,5.2l1.4-5.2h2.3V33h-1.4v-6l-1.5,6H9.1l-1.5-6v6H6.2z"/>
		<path fill="#FFFFFF" d="M14.7,29.2c0-0.8,0.1-1.4,0.3-1.9c0.2-0.4,0.4-0.7,0.7-1c0.3-0.3,0.6-0.5,1-0.7c0.5-0.2,1-0.3,1.6-0.3
			c1.1,0,2,0.3,2.7,1c0.7,0.7,1,1.7,1,2.9c0,1.2-0.3,2.2-1,2.9c-0.7,0.7-1.6,1-2.7,1c-1.1,0-2-0.3-2.7-1
			C15.1,31.4,14.7,30.4,14.7,29.2z M16.3,29.2c0,0.9,0.2,1.5,0.6,2c0.4,0.4,0.9,0.7,1.5,0.7c0.6,0,1.1-0.2,1.5-0.7s0.6-1.1,0.6-2
			c0-0.9-0.2-1.5-0.6-1.9c-0.4-0.4-0.9-0.6-1.5-0.6c-0.6,0-1.1,0.2-1.5,0.6C16.5,27.6,16.3,28.3,16.3,29.2z"/>
		<path fill="#FFFFFF" d="M25.2,33l-2.7-7.6h1.7l1.9,5.6l1.9-5.6h1.6L26.8,33H25.2z"/>
	</g>
	<circle fill="#D02428" cx="17.5" cy="12.3" r="7.1"/>
	<g>
		<path fill="#FFFFFF" d="M15.7,9.8c0-0.3,0.2-0.4,0.4-0.2l4.4,2.5c0.2,0.1,0.2,0.4,0,0.5l-4.4,2.5c-0.2,0.1-0.4,0-0.4-0.2V9.8z"/>
	</g>
</g>
</svg>
