<?xml version="1.0" encoding="utf-8"?>
<!-- Generator: Adobe Illustrator 18.1.0, SVG Export Plug-In . SVG Version: 6.00 Build 0)  -->
<!DOCTYPE svg PUBLIC "-//W3C//DTD SVG 1.1//EN" "http://www.w3.org/Graphics/SVG/1.1/DTD/svg11.dtd">
<svg version="1.1" xmlns="http://www.w3.org/2000/svg" xmlns:xlink="http://www.w3.org/1999/xlink" x="0px" y="0px"
	 viewBox="0 0 35 35" enable-background="new 0 0 35 35" xml:space="preserve">
<g id="Layer_0_xA0_Image_1_">
	
		<image display="none" overflow="visible" width="446" height="443" id="Layer_0_xA0_Image_2_" xlink:href="87E9BCA3B58FF4E5.png"  transform="matrix(0.9999 0 0 0.9999 0 2.9996)">
	</image>
</g>
<g id="PDF">
	<g>
		<path fill="#FFFFFF" d="M3.6,34.7c-1.8,0-3.3-1.5-3.3-3.3V3.6c0-1.8,1.5-3.3,3.3-3.3h27.8c1.8,0,3.3,1.5,3.3,3.3v27.8
			c0,1.8-1.5,3.3-3.3,3.3H3.6z"/>
		<path fill="#BBBBBB" d="M31.4,0.6c1.7,0,3,1.4,3,3v27.8c0,1.7-1.4,3-3,3H3.6c-1.7,0-3-1.4-3-3V3.6c0-1.7,1.4-3,3-3H31.4 M31.4,0
			H3.6C1.6,0,0,1.6,0,3.6v27.8c0,2,1.6,3.6,3.6,3.6h27.8c2,0,3.6-1.6,3.6-3.6V3.6C35,1.6,33.4,0,31.4,0L31.4,0z"/>
	</g>
	<path fill="#005191" d="M34.4,23.7v7.7c0,1.7-1.4,3-3,3H3.6c-1.7,0-3-1.4-3-3v-7.7"/>
	<g>
		<path fill="#FFFFFF" d="M7.4,33v-7.6h2.3l1.4,5.2l1.4-5.2h2.3V33h-1.4v-6l-1.5,6h-1.5l-1.5-6v6H7.4z"/>
		<path fill="#FFFFFF" d="M16.2,33v-7.6h2.5c0.9,0,1.5,0,1.8,0.1c0.4,0.1,0.8,0.4,1.1,0.7s0.4,0.9,0.4,1.5c0,0.5-0.1,0.9-0.3,1.2
			c-0.2,0.3-0.4,0.6-0.6,0.7s-0.5,0.3-0.8,0.4c-0.4,0.1-0.9,0.1-1.6,0.1h-1V33H16.2z M17.7,26.7v2.2h0.8c0.6,0,1,0,1.2-0.1
			c0.2-0.1,0.4-0.2,0.5-0.4s0.2-0.4,0.2-0.6c0-0.3-0.1-0.5-0.2-0.7c-0.2-0.2-0.4-0.3-0.6-0.3c-0.2,0-0.6-0.1-1.1-0.1H17.7z"/>
		<path fill="#FFFFFF" d="M22.9,31l1.4-0.2c0,0.4,0.2,0.6,0.4,0.8c0.2,0.2,0.4,0.3,0.7,0.3c0.3,0,0.6-0.1,0.8-0.3
			c0.2-0.2,0.3-0.5,0.3-0.9c0-0.4-0.1-0.7-0.3-0.9c-0.2-0.2-0.4-0.3-0.7-0.3c-0.2,0-0.4,0-0.7,0.1l0.2-1.2c0.4,0,0.7-0.1,0.9-0.3
			s0.3-0.4,0.3-0.7c0-0.3-0.1-0.5-0.2-0.6s-0.4-0.2-0.6-0.2c-0.2,0-0.5,0.1-0.6,0.3c-0.2,0.2-0.3,0.4-0.3,0.8L23,27.3
			c0.1-0.5,0.2-0.8,0.4-1.1c0.2-0.3,0.5-0.5,0.8-0.6c0.3-0.2,0.7-0.2,1.1-0.2c0.7,0,1.3,0.2,1.7,0.7c0.4,0.4,0.5,0.8,0.5,1.3
			c0,0.7-0.4,1.2-1.1,1.6c0.4,0.1,0.8,0.3,1,0.6c0.3,0.3,0.4,0.7,0.4,1.2c0,0.7-0.2,1.2-0.7,1.7c-0.5,0.5-1.1,0.7-1.8,0.7
			c-0.7,0-1.3-0.2-1.7-0.6C23.2,32.1,23,31.6,22.9,31z"/>
	</g>
	<g>
		<g>
			<path fill="#005191" d="M23.1,6.5l-0.7,1.1c1.3,1.1,2.2,2.7,2.2,4.6c0,1.9-0.9,3.5-2.2,4.6l0.7,1.1c1.7-1.3,2.8-3.4,2.8-5.7
				C25.9,9.9,24.8,7.9,23.1,6.5z M20.6,8.7l-0.7,1.1c0.6,0.6,1,1.4,1,2.4s-0.4,1.8-1,2.4l0.7,1.1c1-0.8,1.6-2.1,1.6-3.5
				C22.2,10.8,21.6,9.6,20.6,8.7z M17,5c-0.8,0-1,0.4-1,0.4s-2,2.2-3.4,3.2c-0.3,0.2-0.5,0.3-1,0.3h-1.1c-0.7,0-1.3,0.6-1.3,1.3v3.9
				c0,0.7,0.6,1.3,1.3,1.3h1.1c0.5,0,0.8,0.1,1,0.3C14,16.8,16,19,16,19s0.2,0.4,1,0.4c0.7,0,1.3-0.6,1.3-1.3V6.3
				C18.3,5.6,17.7,5,17,5z"/>
		</g>
	</g>
</g>
</svg>
