<?xml version="1.0" encoding="utf-8"?>
<!-- Generator: Adobe Illustrator 18.1.0, SVG Export Plug-In . SVG Version: 6.00 Build 0)  -->
<!DOCTYPE svg PUBLIC "-//W3C//DTD SVG 1.1//EN" "http://www.w3.org/Graphics/SVG/1.1/DTD/svg11.dtd">
<svg version="1.1" xmlns="http://www.w3.org/2000/svg" xmlns:xlink="http://www.w3.org/1999/xlink" x="0px" y="0px"
	 viewBox="0 0 35 35" enable-background="new 0 0 35 35" xml:space="preserve">
<g id="Layer_0_xA0_Image_1_">
	
		<image display="none" overflow="visible" width="446" height="443" id="Layer_0_xA0_Image_2_" xlink:href="7A9F49FA78653384.png"  transform="matrix(0.9999 0 0 0.9999 0 2.9996)">
	</image>
</g>
<g id="PDF">
	<g>
		<path fill="#FFFFFF" d="M3.6,34.7c-1.8,0-3.3-1.5-3.3-3.3V3.6c0-1.8,1.5-3.3,3.3-3.3h27.8c1.8,0,3.3,1.5,3.3,3.3v27.8
			c0,1.8-1.5,3.3-3.3,3.3H3.6z"/>
		<path fill="#BBBBBB" d="M31.4,0.6c1.7,0,3,1.4,3,3v27.8c0,1.7-1.4,3-3,3H3.6c-1.7,0-3-1.4-3-3V3.6c0-1.7,1.4-3,3-3H31.4 M31.4,0
			H3.6C1.6,0,0,1.6,0,3.6v27.8c0,2,1.6,3.6,3.6,3.6h27.8c2,0,3.6-1.6,3.6-3.6V3.6C35,1.6,33.4,0,31.4,0L31.4,0z"/>
	</g>
	<path fill="#D02428" d="M34.4,23.7v7.7c0,1.7-1.4,3-3,3H3.6c-1.7,0-3-1.4-3-3v-7.7"/>
	<g>
		<path fill="#FFFFFF" d="M7.4,33v-7.6h2.3l1.4,5.2l1.4-5.2h2.3V33h-1.4v-6l-1.5,6h-1.5l-1.5-6v6H7.4z"/>
		<path fill="#FFFFFF" d="M16.2,33v-7.6h2.5c0.9,0,1.5,0,1.8,0.1c0.4,0.1,0.8,0.4,1.1,0.7s0.4,0.9,0.4,1.5c0,0.5-0.1,0.9-0.3,1.2
			c-0.2,0.3-0.4,0.6-0.6,0.7s-0.5,0.3-0.8,0.4c-0.4,0.1-0.9,0.1-1.6,0.1h-1V33H16.2z M17.7,26.7v2.2h0.8c0.6,0,1,0,1.2-0.1
			c0.2-0.1,0.4-0.2,0.5-0.4s0.2-0.4,0.2-0.6c0-0.3-0.1-0.5-0.2-0.7c-0.2-0.2-0.4-0.3-0.6-0.3c-0.2,0-0.6-0.1-1.1-0.1H17.7z"/>
		<path fill="#FFFFFF" d="M25.8,33v-1.5h-3.1v-1.3l3.3-4.8h1.2v4.8h0.9v1.3h-0.9V33H25.8z M25.8,30.2v-2.6l-1.7,2.6H25.8z"/>
	</g>
	<circle fill="#D02428" cx="17.5" cy="12.3" r="7.1"/>
	<g>
		<path fill="#FFFFFF" d="M15.7,9.8c0-0.3,0.2-0.4,0.4-0.2l4.4,2.5c0.2,0.1,0.2,0.4,0,0.5l-4.4,2.5c-0.2,0.1-0.4,0-0.4-0.2V9.8z"/>
	</g>
</g>
</svg>
