<?xml version="1.0" encoding="utf-8"?>
<!-- Generator: Adobe Illustrator 18.0.0, SVG Export Plug-In . SVG Version: 6.00 Build 0)  -->
<!DOCTYPE svg PUBLIC "-//W3C//DTD SVG 1.1//EN" "http://www.w3.org/Graphics/SVG/1.1/DTD/svg11.dtd">
<svg version="1.1" id="Layer_1" xmlns="http://www.w3.org/2000/svg" xmlns:xlink="http://www.w3.org/1999/xlink" x="0px" y="0px"
	 viewBox="0 0 30 30" enable-background="new 0 0 30 30" xml:space="preserve">
<path fill="none" d="M8.9-28.2c-0.8,1-1.4,2.1-0.3,3.2c1.1,1.1,2.2,0.7,3.2-0.2c1.3-1.2,2.7-2,4.4-2c1.8,0,3.6,0.6,4.1,2.3
	c0.6,2.2-1.8,2-3,2.4c-3.1,1-5.5,2.5-5.4,6.2c0,1.1,0.2,2.3,1.6,2.1c1.2-0.2,3.3,0.6,3.2-1.4c-0.2-3.2,2.1-3.2,4-3.9
	c3.6-1.3,4.9-3.9,3.5-7C21.7-31.9,12.8-33,8.9-28.2z"/>
<path fill="none" d="M16.7-11.2c-1.8,0.1-3.4,0.7-3.6,2.7c-0.1,1.6,1.3,2.3,2.8,2.3c1.8,0,3.2-0.8,3.7-2.8
	C19.3-10.5,18.2-11.2,16.7-11.2z"/>
<circle fill="#F08632" cx="15" cy="15" r="15"/>
<g>
	<path fill="#FDF7F2" d="M17.9,24.5c0.1,1.8-1.7,2.8-3.4,2.9c-1.4,0.1-2.9-0.4-2.9-2.1c0-1.9,1.6-2.7,3.3-2.9
		C16.4,22.4,17.8,22.9,17.9,24.5z"/>
	<path fill="#FFFFFF" d="M22.2,6.9C19.3,1.5,10.4,1,7,6c-0.7,1-1.2,2.2-0.1,3.2c1.1,1,2.2,0.5,3.1-0.4c1.2-1.2,2.5-2.1,4.2-2.2
		c1.8-0.1,3.6,0.4,4.2,2c0.7,2.1-1.6,2.1-2.8,2.6c-3,1.2-5.3,2.8-4.9,6.5c0.1,1.1,0.3,2.3,1.8,2c1.1-0.2,3.3,0.4,3.1-1.6
		c-0.4-3.1,1.8-3.3,3.7-4.1C22.7,12.4,23.8,9.9,22.2,6.9z"/>
</g>
</svg>
