<?xml version="1.0" encoding="utf-8"?>
<!-- Generator: Adobe Illustrator 18.0.0, SVG Export Plug-In . SVG Version: 6.00 Build 0)  -->
<!DOCTYPE svg PUBLIC "-//W3C//DTD SVG 1.1//EN" "http://www.w3.org/Graphics/SVG/1.1/DTD/svg11.dtd">
<svg version="1.1" id="Layer_1" xmlns="http://www.w3.org/2000/svg" xmlns:xlink="http://www.w3.org/1999/xlink" x="0px" y="0px"
	 viewBox="0 0 44.6 50" enable-background="new 0 0 44.6 50" xml:space="preserve">
<g>
	<path fill="#FFFFFF" d="M21.8,17.1c-4.6,0-8.4-3.7-8.4-8.4c0-4.6,3.7-8.3,8.4-8.3c4.6,0,8.3,3.7,8.3,8.3
		C30.2,13.4,26.4,17.1,21.8,17.1z"/>
	<path fill="#675E59" d="M21.8,0.9c4.3,0,7.8,3.5,7.8,7.8c0,4.3-3.5,7.8-7.8,7.8c-4.3,0-7.8-3.5-7.8-7.8C14,4.5,17.5,0.9,21.8,0.9
		 M21.8-0.1c-4.9,0-8.9,4-8.9,8.9c0,4.9,4,8.9,8.9,8.9c4.9,0,8.9-4,8.9-8.9C30.7,3.9,26.7-0.1,21.8-0.1L21.8-0.1z"/>
</g>
<g>
	<path fill="#FFFFFF" d="M21.2,49.4c-5,0-9.5-1.3-10.7-1.6c-0.1-2.6-0.8-18.7,0.3-23.1c0.6-2.5,1.9-5.2,3.8-7.6
		c1.8,2,4.5,3.2,7.2,3.2c2.9,0,5.8-1.3,7.6-3.3c0.7,0.7,2.5,2.8,3.7,7.7c1.7,6.8,1.4,20.6,1.3,23.1c-1.5,0.3-7.4,1.5-12.7,1.7
		C21.6,49.4,21.4,49.4,21.2,49.4C21.2,49.4,21.2,49.4,21.2,49.4z"/>
	<path fill="#675E59" d="M29.4,17.7c0.8,0.9,2.2,3,3.2,7.1c1.6,6.5,1.4,19.3,1.3,22.6c-2,0.4-7.4,1.5-12.2,1.6c-0.2,0-0.4,0-0.6,0
		c-4.6,0-8.6-1.1-10.2-1.5C10.9,44,10.3,29,11.3,24.8c0.5-2.3,1.7-4.7,3.4-7c1.9,1.8,4.5,2.9,7.2,2.9C24.6,20.7,27.6,19.5,29.4,17.7
		 M29.4,16.2c-1.6,2.1-4.6,3.5-7.5,3.5c-2.9,0-5.6-1.4-7.2-3.5c-0.1,0.2-3.2,3.8-4.3,8.3C9.1,29.5,10,48.2,10,48.2s5.1,1.8,11.1,1.8
		c0.2,0,0.4,0,0.6,0C28,49.8,35,48.2,35,48.2s0.5-16-1.3-23.6C32,17.9,29.4,16.2,29.4,16.2L29.4,16.2z"/>
</g>
<line fill="none" stroke="#7E7E7E" stroke-width="3.75" stroke-linecap="round" stroke-miterlimit="10" x1="2" y1="16.2" x2="42.8" y2="47"/>
</svg>
