<?xml version="1.0" encoding="utf-8"?>
<!-- Generator: Adobe Illustrator 18.0.0, SVG Export Plug-In . SVG Version: 6.00 Build 0)  -->
<!DOCTYPE svg PUBLIC "-//W3C//DTD SVG 1.1//EN" "http://www.w3.org/Graphics/SVG/1.1/DTD/svg11.dtd">
<svg version="1.1" id="Layer_1" xmlns="http://www.w3.org/2000/svg" xmlns:xlink="http://www.w3.org/1999/xlink" x="0px" y="0px"
	 viewBox="0 0 25 50" enable-background="new 0 0 25 50" xml:space="preserve">
<g>
	<path fill="#FFFFFF" d="M12.5,17.2c-4.6,0-8.3-3.7-8.3-8.3s3.7-8.3,8.3-8.3s8.3,3.7,8.3,8.3S17.1,17.2,12.5,17.2z"/>
	<path fill="#675E59" d="M12.5,1.1c4.3,0,7.8,3.5,7.8,7.8s-3.5,7.8-7.8,7.8c-4.3,0-7.8-3.5-7.8-7.8S8.2,1.1,12.5,1.1 M12.5,0.1
		c-4.9,0-8.8,4-8.8,8.8c0,4.9,4,8.8,8.8,8.8c4.9,0,8.8-4,8.8-8.8C21.3,4,17.4,0.1,12.5,0.1L12.5,0.1z"/>
</g>
<g>
	<path fill="#FFFFFF" d="M12.5,49.4c-0.2,0-0.4,0-0.6,0c-4.6,0-9.7-1.3-11-1.6c-0.1-2.6-0.7-18.7,0.3-23.1c0.6-2.5,1.8-5.2,3.6-7.6
		c1.7,1.9,4.8,3.2,7.7,3.2c2.9,0,6.1-1.3,7.8-3.2c1.8,2.4,3.1,5.1,3.6,7.6c1,4.4,0.3,20.5,0.2,23.1c-1.3,0.4-6.4,1.6-11.1,1.6
		C13,49.4,12.6,49.4,12.5,49.4z"/>
	<path fill="#675E59" d="M20.2,17.9c1.6,2.3,2.7,4.7,3.2,6.9c0.9,4.2,0.4,19.1,0.2,22.6c-1.7,0.4-6.3,1.5-10.6,1.5
		c-0.2,0-0.4,0-0.6,0c-0.2,0-0.4,0-0.6,0c-4.2,0-8.8-1.1-10.5-1.5C1.2,43.9,0.7,29,1.6,24.8c0.5-2.2,1.6-4.7,3.2-6.9
		c1.9,1.7,4.9,2.9,7.7,2.9C14.9,20.8,18.2,19.8,20.2,17.9 M20.3,16.3c-1.5,2.1-5,3.5-7.8,3.5s-6.2-1.4-7.8-3.5c-0.1,0.2-3,3.7-4,8.3
		c-1.1,4.9-0.3,23.6-0.3,23.6s6,1.8,11.5,1.8c0.2,0,0.4,0,0.6,0c0.2,0,0.4,0,0.6,0c5.5,0,11.6-1.8,11.6-1.8s0.9-18.7-0.2-23.6
		C23.4,20.1,20.4,16.5,20.3,16.3L20.3,16.3z"/>
</g>
</svg>
