<?xml version="1.0" encoding="utf-8"?>
<!-- Generator: Adobe Illustrator 18.1.0, SVG Export Plug-In . SVG Version: 6.00 Build 0)  -->
<!DOCTYPE svg PUBLIC "-//W3C//DTD SVG 1.1//EN" "http://www.w3.org/Graphics/SVG/1.1/DTD/svg11.dtd">
<svg version="1.1" xmlns="http://www.w3.org/2000/svg" xmlns:xlink="http://www.w3.org/1999/xlink" x="0px" y="0px"
	 viewBox="0 0 35 35" enable-background="new 0 0 35 35" xml:space="preserve">
<g id="Layer_0_xA0_Image_1_">
	
		<image display="none" overflow="visible" width="446" height="443" id="Layer_0_xA0_Image_2_" xlink:href="CFFE3FF288153B99.png"  transform="matrix(0.9999 0 0 0.9999 0 2.9996)">
	</image>
</g>
<g id="PDF">
	<g>
		<path fill="#FFFFFF" d="M3.6,34.7c-1.8,0-3.3-1.5-3.3-3.3V3.6c0-1.8,1.5-3.3,3.3-3.3h27.8c1.8,0,3.3,1.5,3.3,3.3v27.8
			c0,1.8-1.5,3.3-3.3,3.3H3.6z"/>
		<path fill="#BBBBBB" d="M31.4,0.6c1.7,0,3,1.4,3,3v27.8c0,1.7-1.4,3-3,3H3.6c-1.7,0-3-1.4-3-3V3.6c0-1.7,1.4-3,3-3H31.4 M31.4,0
			H3.6C1.6,0,0,1.6,0,3.6v27.8c0,2,1.6,3.6,3.6,3.6h27.8c2,0,3.6-1.6,3.6-3.6V3.6C35,1.6,33.4,0,31.4,0L31.4,0z"/>
	</g>
	<path fill="#9D9D9D" d="M34.4,23.7v7.7c0,1.7-1.4,3-3,3H3.6c-1.7,0-3-1.4-3-3v-7.7"/>
	<g>
		<path fill="#FFFFFF" d="M10,33v-6.3H7.7v-1.3h6v1.3h-2.2V33H10z"/>
		<path fill="#FFFFFF" d="M14,33l2.6-4l-2.4-3.6H16l1.5,2.4l1.5-2.4h1.8l-2.4,3.7L21,33h-1.8l-1.7-2.6L15.8,33H14z"/>
		<path fill="#FFFFFF" d="M23.5,33v-6.3h-2.3v-1.3h6v1.3H25V33H23.5z"/>
	</g>
	
		<line fill="none" stroke="#9D9D9D" stroke-width="2" stroke-linecap="round" stroke-miterlimit="10" x1="6.8" y1="7.8" x2="28.2" y2="7.8"/>
	
		<line fill="none" stroke="#9D9D9D" stroke-width="2" stroke-linecap="round" stroke-miterlimit="10" x1="6.8" y1="12.8" x2="28.2" y2="12.8"/>
	
		<line fill="none" stroke="#9D9D9D" stroke-width="2" stroke-linecap="round" stroke-miterlimit="10" x1="6.8" y1="17.8" x2="28.2" y2="17.8"/>
</g>
</svg>
