<?xml version="1.0" encoding="utf-8"?>
<!-- Generator: Adobe Illustrator 18.1.0, SVG Export Plug-In . SVG Version: 6.00 Build 0)  -->
<!DOCTYPE svg PUBLIC "-//W3C//DTD SVG 1.1//EN" "http://www.w3.org/Graphics/SVG/1.1/DTD/svg11.dtd">
<svg version="1.1" id="Layer_1" xmlns="http://www.w3.org/2000/svg" xmlns:xlink="http://www.w3.org/1999/xlink" x="0px" y="0px"
	 viewBox="0 0 30.4 37" enable-background="new 0 0 30.4 37" xml:space="preserve">
<g id="XMLID_2_">
	<g>
		<path fill="#7D7D7D" d="M30.4,19.3v14c0,2-1.6,3.6-3.5,3.6H3.5C1.6,37,0,35.4,0,33.4v-14c0-2,1.6-3.6,3.5-3.6h0.1h0.7h1.2v2.2H3.6
			H3.5c-0.7,0-1.3,0.7-1.3,1.5v14c0,0.8,0.6,1.5,1.3,1.5h23.4c0.7,0,1.3-0.6,1.3-1.5v-14c0-0.8-0.6-1.5-1.3-1.5h-3
			c0.4-5.7-0.6-10.4-2.4-12.7c-1.6-2-3.8-3-6.2-3c0,0,0,0,0,0c-2.4,0-4.5,1-6.2,3C8,6.4,7.3,7.8,6.9,9.7l-2.3,0.4
			C5,7.3,6,5.3,7.3,3.8C9.6,1.3,12.6,0,15.2,0h0c3,0,5.8,1.2,7.8,3.8c1.9,2.4,3.3,6.8,3,11.9h0.8C28.8,15.7,30.4,17.3,30.4,19.3z"/>
		<path fill="#7D7D7D" d="M19.1,7.5c1.4,1.6,2.1,5.9,1.5,10.4h-0.9h-9.1h-0.5v-2.2h1.7H14h4.5c0.3-4-0.5-6-1.1-6.8
			c-0.1-0.1-0.1-0.1-0.1-0.2c-0.6-0.6-1.4-1-2.1-1c-0.8,0-1.5,0.4-2.1,1l-0.1,0.2c-0.1,0.1-0.2,0.4-0.3,0.6c0,0,0,0,0-0.1l-2.3,0.2
			c0.2-1,0.6-1.7,1-2.2v0c1-1.2,2.5-2,3.9-2h0C16.6,5.5,18.1,6.3,19.1,7.5z"/>
		<path fill="#7D7D7D" d="M17.6,30.8c0,0,0.1,0.1,0.1,0.2c0,0.2-0.1,0.3-0.3,0.3h0H13c-0.1,0-0.2,0-0.2-0.1c-0.1-0.1-0.1-0.2,0-0.3
			l1.5-3.5c-0.9-0.4-1.5-1.2-1.5-2.3c0-1.4,1.1-2.5,2.5-2.5s2.5,1.1,2.5,2.5c0,1-0.6,1.9-1.5,2.3L17.6,30.8z M16.1,25.2
			c0-0.5-0.4-1-0.9-1c-0.5,0-0.9,0.4-0.9,1c0,0.5,0.4,0.9,0.9,0.9C15.7,26.2,16.1,25.7,16.1,25.2z"/>
		<path fill="#7D7D7D" d="M15.2,24.3c0.5,0,0.9,0.4,0.9,1c0,0.5-0.4,0.9-0.9,0.9c-0.5,0-0.9-0.4-0.9-0.9
			C14.2,24.7,14.7,24.3,15.2,24.3z M15.3,25.4c0.1,0,0.2-0.1,0.2-0.3c0-0.2-0.1-0.3-0.3-0.3c-0.2,0-0.3,0.1-0.3,0.3
			c0,0.1,0.1,0.2,0.2,0.3c0,0,0.1,0,0.1,0C15.2,25.4,15.2,25.4,15.3,25.4z"/>
		<path fill="#7D7D7D" d="M15.5,25.1c0,0.1-0.1,0.2-0.2,0.3c0,0-0.1,0-0.1,0c0,0-0.1,0-0.1,0c-0.1,0-0.2-0.1-0.2-0.3
			c0-0.2,0.1-0.3,0.3-0.3C15.3,24.8,15.5,24.9,15.5,25.1z"/>
		<path fill="#7D7D7D" d="M12.6,9.5C12.6,9.5,12.6,9.5,12.6,9.5L12.6,9.5c-0.1,0.1-0.1,0.2-0.1,0.2l-2.3,0.1c0,0,0,0,0,0
			c0,0,0,0,0-0.1L12.6,9.5z"/>
		<path fill="#7D7D7D" d="M10.3,9.8l2.3-0.1c-0.1,0.2-0.1,0.4-0.2,0.6c-0.4,1.3-0.8,2.4-2.1,2.9c-0.1,0.1-0.3,0.1-0.6,0.1
			C9.8,12.1,10,10.8,10.3,9.8z"/>
		<path fill="#BBBBBB" d="M10.3,9.8C10.3,9.8,10.3,9.8,10.3,9.8L10.3,9.8C10.3,9.8,10.3,9.8,10.3,9.8z"/>
		<path fill="#7D7D7D" d="M10.2,9.8L10.2,9.8c-0.3,1-0.4,2.3-0.6,3.6c-0.9,0.2-2.4,0.1-3.2-0.1c0-1.3,0.1-2.4,0.3-3.4h0
			c-0.1,1,0.1,1.5,1.1,1.5c0.3,0,0.2,0,0.5,0C9.7,11.5,10,10.6,10.2,9.8z"/>
		<path fill="#7D7D7D" d="M10.1,15.7v2.2H9.6v-2c0,0,0-0.1,0-0.1H10.1z"/>
		<path fill="#7D7D7D" d="M9.6,15.7c0,0.1,0,0.1,0,0.1v2H6.5v-2.1c0,0,0-0.1,0-0.1H9.6z"/>
		<path fill="#7D7D7D" d="M6.9,9.7C6.9,9.7,6.9,9.7,6.9,9.7c0,0.1,0,0.2-0.1,0.3l-2.3,0.1L6.9,9.7z"/>
		<path fill="#7D7D7D" d="M6.8,10c0-0.1,0-0.1,0-0.2C6.9,9.8,6.8,9.9,6.8,10L6.8,10z"/>
		<path fill="#7D7D7D" d="M4.6,10.1L6.8,10c-0.2,1-0.3,2.1-0.3,3.4c-0.1,0-0.2,0-0.3-0.1C4.9,13,4.3,12,4.6,10.1z"/>
		<path fill="#7D7D7D" d="M6.5,15.8v2.1h-1v-2.2h1C6.5,15.7,6.5,15.8,6.5,15.8z"/>
	</g>
	<g>
	</g>
</g>
</svg>
