<?xml version="1.0" encoding="utf-8"?>
<!-- Generator: Adobe Illustrator 18.1.0, SVG Export Plug-In . SVG Version: 6.00 Build 0)  -->
<!DOCTYPE svg PUBLIC "-//W3C//DTD SVG 1.1//EN" "http://www.w3.org/Graphics/SVG/1.1/DTD/svg11.dtd">
<svg version="1.1" id="Layer_1" xmlns="http://www.w3.org/2000/svg" xmlns:xlink="http://www.w3.org/1999/xlink" x="0px" y="0px"
	 viewBox="0 0 30.4 37" enable-background="new 0 0 30.4 37" xml:space="preserve">
<g id="XMLID_2_">
	<path fill="#CCCCCC" d="M10.2,13.3c-0.4,0.2-1.1,0.2-1.9,0.2c-0.8,0-1.6-0.1-2.1-0.2c-1.3-0.4-1.9-1.3-1.7-3.1C5,7.5,6,5.3,7.3,3.8
		C9.6,1.3,12.6,0,15.2,0h0c3,0,5.8,1.2,7.8,3.8c1.9,2.4,3.3,6.8,3,11.9h0.8c1.9,0,3.5,1.6,3.5,3.6v14c0,2-1.6,3.6-3.5,3.6H3.5
		C1.6,37,0,35.4,0,33.4v-14c0-2,1.6-3.6,3.5-3.6h15.1c0.3-4-0.5-6-1.1-6.8c-0.1-0.1-0.1-0.1-0.1-0.2c-0.6-0.6-1.4-1-2.1-1
		c-0.8,0-2,0.3-2.6,1.7C12,11.2,11.9,12.6,10.2,13.3z M8,11.5c2.2,0,2-1.2,2.3-2c0.2-0.9,0.5-1.5,0.9-2v0c1-1.2,2.5-2,3.9-2h0
		c1.5,0,2.9,0.7,3.9,2c1.4,1.6,2.1,5.9,1.5,10.4h-0.9h-9.1h-0.1H3.6H3.5c-0.7,0-1.3,0.7-1.3,1.5v14c0,0.8,0.6,1.5,1.3,1.5h23.4
		c0.7,0,1.3-0.6,1.3-1.5v-14c0-0.8-0.6-1.5-1.3-1.5h-3c0.4-5.7-0.6-10.4-2.4-12.7c-0.8-1-1.8-1.8-2.8-2.2c-1-0.5-2.2-0.7-3.4-0.7
		c0,0,0,0,0,0c-2.4,0-4.5,1-6.2,3C7.9,6.5,7.2,7.9,6.9,9.9C6.7,10.9,7,11.5,8,11.5L8,11.5z"/>
	<path fill="#CCCCCC" d="M16.1,27.4c0.9-0.4,1.5-1.2,1.5-2.3c0-1.4-1.1-2.5-2.5-2.5s-2.5,1.1-2.5,2.5c0,1,0.6,1.9,1.5,2.3l-1.5,3.5
		c0,0.1,0,0.2,0,0.3c0,0.1,0.1,0.1,0.2,0.1h4.3h0c0.2,0,0.2-0.1,0.2-0.3c0-0.1,0-0.1,0-0.2L16.1,27.4z"/>
</g>
</svg>
