<?xml version="1.0" encoding="utf-8"?>
<!-- Generator: Adobe Illustrator 19.0.1, SVG Export Plug-In . SVG Version: 6.00 Build 0)  -->
<!DOCTYPE svg PUBLIC "-//W3C//DTD SVG 1.1//EN" "http://www.w3.org/Graphics/SVG/1.1/DTD/svg11.dtd">
<svg version="1.1" id="Layer_1" xmlns="http://www.w3.org/2000/svg" xmlns:xlink="http://www.w3.org/1999/xlink" x="0px" y="0px"
	 viewBox="0 0 16 16" enable-background="new 0 0 16 16" xml:space="preserve">
<path fill="#5D5D5D" d="M8,0C3.581,0,0,3.581,0,8c0,4.417,3.581,8,8,8c4.417,0,8-3.583,8-8C16,3.581,12.417,0,8,0z M12.099,10.856
	c0.058,0.057,0.09,0.134,0.092,0.212c0,0.08-0.032,0.157-0.089,0.214l-0.817,0.821c-0.059,0.061-0.138,0.09-0.213,0.09
	c-0.08,0-0.156-0.031-0.215-0.09L8.002,9.239l-2.853,2.866c-0.059,0.06-0.137,0.09-0.214,0.09c-0.078,0-0.154-0.031-0.213-0.09
	l-0.817-0.821c-0.059-0.057-0.089-0.133-0.089-0.214c0-0.08,0.033-0.157,0.089-0.214l2.863-2.874l-2.872-2.84
	c-0.118-0.118-0.118-0.31,0-0.428L4.71,3.894c0.057-0.055,0.134-0.087,0.214-0.087c0.081,0,0.157,0.03,0.214,0.087l2.863,2.828
	l2.858-2.83c0.058-0.055,0.134-0.088,0.215-0.088c0.08,0,0.156,0.031,0.213,0.088l0.817,0.821c0.118,0.118,0.118,0.31,0,0.428
	L9.233,7.979L12.099,10.856z"/>
</svg>
