<?xml version="1.0" encoding="utf-8"?>
<!-- Generator: Adobe Illustrator 19.0.1, SVG Export Plug-In . SVG Version: 6.00 Build 0)  -->
<!DOCTYPE svg PUBLIC "-//W3C//DTD SVG 1.1//EN" "http://www.w3.org/Graphics/SVG/1.1/DTD/svg11.dtd">
<svg version="1.1" id="Layer_1" xmlns="http://www.w3.org/2000/svg" xmlns:xlink="http://www.w3.org/1999/xlink" x="0px" y="0px"
	 viewBox="574.7 -267.9 538.6 540.5" enable-background="new 574.7 -267.9 538.6 540.5" xml:space="preserve">
<linearGradient id="SVGID_1_" gradientUnits="userSpaceOnUse" x1="1113.2302" y1="97.65" x2="574.6699" y2="97.65" gradientTransform="matrix(1 0 0 -1 0 100)">
	<stop  offset="0" style="stop-color:#B11F8E"/>
	<stop  offset="4.605567e-02" style="stop-color:#AE208E"/>
	<stop  offset="0.3558" style="stop-color:#A1238F"/>
	<stop  offset="0.6716" style="stop-color:#99258F"/>
	<stop  offset="1" style="stop-color:#97268F"/>
</linearGradient>
<path fill="url(#SVGID_1_)" d="M1041.7,124.8C970.6,230.3,867,265.8,844,272.6c-23.1-6.8-126.6-42.3-197.7-147.7
	C609,69.6,566.9-31,575.9-197.8c21.5-15.2,109.9-69.8,268.1-70.1c158.1,0.3,246.5,54.9,268,70.1C1121-31,1078.9,69.6,1041.7,124.8z"
	/>
<path fill="#FFFFFF" d="M1085.6-172.3l-0.3-5.4l-4.1-3.5c-3.2-2.7-79.5-65.3-236.8-65.8l0,0c-0.3,0-0.6,0-0.9,0c-0.3,0-0.6,0-0.9,0
	l0,0c-157.3,0.5-233.6,63.1-236.8,65.8l-4.1,3.5l-0.3,5.4c-9,145.8,28.2,234.4,61,283c36.7,54.5,83.3,87.2,115.9,105.1
	c30.3,16.6,56.8,24.9,64.5,26.3v0.2c0.2,0,0.5,0,0.9-0.1c0.3,0,0.7,0.1,0.9,0.1v-0.2c7.7-1.4,34.1-9.7,64.5-26.3
	c32.6-17.9,79.1-50.6,115.9-105.1C1057.5,62.1,1094.7-26.5,1085.6-172.3z M1003.7,96.6C946.1,182,862.2,210.8,843.5,216.3
	c-18.7-5.5-102.6-34.2-160.2-119.7c-30.2-44.7-64.3-126.3-57-261.4c17.4-12.3,89.1-56.6,217.2-56.8c128.1,0.2,199.8,44.5,217.2,56.8
	C1068-29.7,1033.8,51.8,1003.7,96.6z"/>
<path fill="#FFFFFF" d="M900.2-94.7H777.7c-7,0-12.7,5.7-12.7,12.6c0,7,5.7,12.7,12.7,12.7h122.5c7,0,12.6-5.7,12.6-12.7
	C912.8-89,907.2-94.7,900.2-94.7z"/>
<path fill="#FFFFFF" d="M900.2-56.6H777.7c-7,0-12.7,5.7-12.7,12.7s5.7,12.6,12.7,12.6h122.5c7,0,12.6-5.7,12.6-12.6
	C912.8-50.9,907.2-56.6,900.2-56.6z"/>
<path fill="#FFFFFF" d="M907.4-188.9H746.6c-15,0-27.2,12.2-27.2,27.2V81.1c0,15,12.2,27.2,27.2,27.2h107.8
	c-0.3-7.7,0.5-16.7,0.7-25.3H746.6c-1.1,0-1.9-0.9-1.9-1.9v-242.8c0-1.1,0.8-1.9,1.9-1.9h139v58.4h52.8V-29
	c10.2,5.5,17.5,15.8,18.8,27.8h6.5v-132.6L907.4-188.9z"/>
<path fill="#FFFFFF" d="M885.2,10.5c0-15.7,12.7-28.5,28.5-28.5c15.7,0,28.5,12.7,28.5,28.5c0,15.7-12.7,28.5-28.5,28.5
	C897.9,38.9,885.2,26.2,885.2,10.5z"/>
<g>
	<path fill="#FFFFFF" d="M901,124.4c-0.6-1.9-1.1-4-1.5-6.3c-1.1-5.8,0.9-11.5,5.3-15.6c3.9-3.6,8.4-6,13.3-7.2
		c1.5-0.4,2.9-0.5,4.3-0.5c3,0,7.9,0.8,11.7,5.5c1.8-2.9,3.7-5.7,5.7-8.6c3.8-5.6,7.8-11.4,11.9-17.1c-0.4-2.6-0.9-5.1-1.5-7.3
		c-5.2-21.2-13.7-26.6-13.7-26.6c-5.2,6.8-14.9,9.8-24.1,9.8c-9.1,0-17.9-3.1-23.1-9.8c-0.4,0.6-8.8,6.5-13.7,26.6
		c-5.9,23.9-0.9,73.7-0.9,73.7s14.5,5.3,33.9,5.6C905.2,137.9,902.2,128.4,901,124.4z"/>
</g>
<g>
	<path fill="#FFFFFF" d="M925.3,146c-2.4,0-3.8-1.2-4.9-3.1c-1.8-3-2.9-6.3-4-9.6c-1.2-3.5-2.3-7-3.3-10.5c-0.5-1.7-0.9-3.4-1.2-5.1
		c-0.4-2.2,0.3-4,2-5.5c2.4-2.2,5.2-3.8,8.4-4.6c3.3-0.8,5,0.4,6.3,3.6c0.9,2.1,1.6,4.4,2.4,6.5c0.6,1.4,1.2,2.8,1.9,4.2
		c0.8,1.4,1.7,1.5,2.7,0.2s1.9-2.7,2.8-4.1c4-6.2,8-12.4,12.1-18.6c4.4-6.5,8.9-13.1,13.6-19.4c4.9-6.6,10.2-12.9,15.2-19.4
		c2.3-3,5.2-5.1,8.8-6.2c3.5-1,7-1.4,10.6-1.2c0.6,0,1.3,0.2,1.9,0.5c1,0.4,1.4,1.2,0.8,2.1c-1.3,1.9-2.6,3.8-4,5.6
		c-6.5,8.3-13.1,16.4-19.5,24.7c-4.4,5.7-8.8,11.6-13,17.5c-4.7,6.5-9.3,13.1-13.8,19.8c-4.3,6.4-8.5,12.9-12.8,19.3
		c-1,1.6-2.5,2.6-4.3,2.9C931.6,146,926.5,146,925.3,146z"/>
</g>
</svg>
