<?xml version="1.0" encoding="utf-8"?>
<!-- Generator: Adobe Illustrator 19.0.1, SVG Export Plug-In . SVG Version: 6.00 Build 0)  -->
<!DOCTYPE svg PUBLIC "-//W3C//DTD SVG 1.1//EN" "http://www.w3.org/Graphics/SVG/1.1/DTD/svg11.dtd">
<svg version="1.1" id="Layer_1" xmlns="http://www.w3.org/2000/svg" xmlns:xlink="http://www.w3.org/1999/xlink" x="0px" y="0px"
	 viewBox="798 3.6 93.2 93.4" enable-background="new 798 3.6 93.2 93.4" xml:space="preserve">
<linearGradient id="SVGID_1_" gradientUnits="userSpaceOnUse" x1="895.6479" y1="71.5298" x2="804.8674" y2="38.4884" gradientTransform="matrix(1 0 0 -1 0 100)">
	<stop  offset="0" style="stop-color:#85C442"/>
	<stop  offset="1" style="stop-color:#629E42"/>
</linearGradient>
<path fill="url(#SVGID_1_)" d="M878.8,71.5c-12.3,18.2-30.2,24.4-34.2,25.5c-4-1.2-21.9-7.3-34.2-25.5c-6.4-9.5-13.7-26.9-12.2-55.8
	c3.7-2.6,19-12.1,46.4-12.1c27.3,0,42.6,9.5,46.4,12.1C892.5,44.6,885.3,62,878.8,71.5z"/>
<path fill="#FFFFFF" d="M886.2,19.9l-0.1-0.9l-0.7-0.6c-0.6-0.5-13.7-11.3-41-11.4l0,0c-0.1,0-0.1,0-0.2,0c-0.1,0-0.1,0-0.2,0l0,0
	c-27.2,0.1-40.4,10.9-41,11.4l-0.7,0.6l-0.1,0.9c-1.6,25.2,4.9,40.5,10.5,48.9c6.4,9.4,14.4,15.1,20,18.2c5.2,2.9,9.8,4.3,11.2,4.5
	l0,0c0,0,0.1,0,0.2,0c0.1,0,0.1,0,0.2,0l0,0c1.3-0.2,5.9-1.7,11.2-4.5c5.6-3.1,13.7-8.7,20-18.2C881.4,60.4,887.8,45.1,886.2,19.9z
	 M872.1,66.4c-10,14.8-24.5,19.7-27.7,20.7c-3.2-1-17.7-5.9-27.7-20.7c-5.2-7.7-11.1-21.8-9.9-45.2c3-2.1,15.4-9.8,37.6-9.8
	c22.2,0,34.6,7.7,37.6,9.8C883.2,44.6,877.3,58.7,872.1,66.4z"/>
<g>
	<path fill="none" d="M835.5,50.4c-1.1,0-1.8-0.4-2.2-1.2c-0.2-0.4-0.3-1-0.3-1.7h-3.3c0.1,1.4,0.3,2.4,0.8,3.3
		c0.9,1.6,2.6,2.4,5,2.4c2,0,3.4-0.5,4.4-1.6s1.5-2.4,1.5-3.8s-0.4-2.4-1.3-3.2c-0.6-0.5-1-0.8-1.3-0.8c0.4-0.2,0.8-0.4,1.2-0.9
		c0.6-0.7,0.9-1.5,0.9-2.5c0-1.4-0.5-2.5-1.5-3.4c-1-0.8-2.3-1.3-3.9-1.3c-0.9,0-1.6,0.1-2.2,0.3c-0.6,0.2-1.1,0.5-1.6,0.9
		c-0.6,0.6-1,1.2-1.3,1.8c-0.3,0.8-0.4,1.6-0.4,2.4h3.1c0-0.8,0.2-1.5,0.5-2c0.4-0.5,0.9-0.7,1.7-0.7c0.7,0,1.2,0.2,1.6,0.6
		c0.4,0.4,0.6,0.9,0.6,1.6c0,1-0.4,1.7-1.1,2c-0.4,0.2-1.2,0.3-2.3,0.3v2.4c1.1,0,1.9,0.1,2.4,0.3c0.9,0.4,1.4,1.1,1.4,2.2
		c0,0.8-0.2,1.5-0.7,1.9C836.8,50.1,836.2,50.4,835.5,50.4z"/>
	<path fill="none" d="M850.2,53.1c2.2,0,3.7-0.8,4.5-2.3c0.9-1.5,1.3-3.7,1.3-6.5s-0.4-5-1.3-6.5c-0.9-1.5-2.4-2.3-4.5-2.3
		c-2.2,0-3.7,0.8-4.5,2.3c-0.9,1.5-1.3,3.7-1.3,6.5s0.4,5,1.3,6.5C846.5,52.3,848.1,53.1,850.2,53.1z M848.3,39.8c0.3-1,1-1.5,2-1.5
		s1.6,0.5,1.9,1.5c0.3,1,0.5,2.5,0.5,4.5s-0.2,3.4-0.5,4.5c-0.3,1-1,1.6-1.9,1.6c-1,0-1.6-0.5-2-1.6c-0.3-1-0.5-2.5-0.5-4.5
		S847.9,40.8,848.3,39.8z"/>
	<path fill="#FFFFFF" d="M867.2,26.2c0,0.1,0,0.3,0,0.4v31.5c0,2.6-2.2,4.8-4.8,4.8H823c-0.2,0-0.4,0-0.6,0c0.6,1.5,2,2.5,3.7,2.5
		h39.5c2.2,0,4-1.8,4-4V29.9C869.6,28.2,868.6,26.8,867.2,26.2z"/>
	<path fill="#FFFFFF" d="M850.2,50.4c1,0,1.6-0.5,1.9-1.6c0.3-1,0.5-2.5,0.5-4.5s-0.2-3.6-0.5-4.5c-0.3-1-1-1.5-1.9-1.5
		c-1,0-1.6,0.5-2,1.5c-0.3,1-0.5,2.5-0.5,4.5s0.2,3.4,0.5,4.5C848.6,49.8,849.2,50.4,850.2,50.4z"/>
	<path fill="#FFFFFF" d="M862.5,61.3c1.8,0,3.2-1.4,3.2-3.2V26.6c0-0.3,0-0.5-0.1-0.7c-0.3-1.4-1.6-2.4-3.1-2.4h-9.1v2.4v2
		c0,1.3-1,2.3-2.3,2.3s-2.3-1-2.3-2.3v-2v-2.4h-11.4v2.4v2c0,1.3-1,2.3-2.3,2.3s-2.3-1-2.3-2.3v-2v-2.4H823c-1.8,0-3.2,1.4-3.2,3.2
		v31.5c0,1.5,1,2.7,2.3,3.1c0.3,0.1,0.6,0.1,0.9,0.1h39.5V61.3z M845.7,37.8c0.9-1.5,2.4-2.3,4.5-2.3c2.2,0,3.7,0.8,4.5,2.3
		c0.9,1.5,1.3,3.7,1.3,6.5s-0.4,5-1.3,6.5c-0.9,1.5-2.4,2.3-4.5,2.3c-2.2,0-3.7-0.8-4.5-2.3c-0.9-1.5-1.3-3.7-1.3-6.5
		S844.8,39.4,845.7,37.8z M836.6,45.5c-0.5-0.2-1.3-0.3-2.4-0.3v-2.4c1.1,0,1.8-0.1,2.3-0.3c0.7-0.3,1.1-1,1.1-2
		c0-0.6-0.2-1.2-0.6-1.6c-0.4-0.4-0.9-0.6-1.6-0.6c-0.8,0-1.4,0.2-1.7,0.7c-0.4,0.5-0.5,1.2-0.5,2H830c0-0.8,0.2-1.6,0.4-2.4
		c0.3-0.7,0.7-1.3,1.3-1.8c0.4-0.4,1-0.7,1.6-0.9c0.6-0.2,1.3-0.3,2.2-0.3c1.6,0,2.9,0.4,3.9,1.3c1,0.8,1.5,2,1.5,3.4
		c0,1-0.3,1.8-0.9,2.5c-0.4,0.4-0.8,0.7-1.2,0.9c0.3,0,0.7,0.3,1.3,0.8c0.9,0.8,1.3,1.9,1.3,3.2c0,1.4-0.5,2.7-1.5,3.8
		c-1,1.1-2.5,1.6-4.4,1.6c-2.4,0-4.1-0.8-5-2.4c-0.5-0.8-0.8-1.9-0.8-3.3h3.3c0,0.7,0.1,1.2,0.3,1.7c0.4,0.8,1.1,1.2,2.2,1.2
		c0.7,0,1.2-0.2,1.7-0.7c0.5-0.4,0.7-1.1,0.7-1.9C838,46.6,837.5,45.9,836.6,45.5z"/>
	<path fill="#FFFFFF" d="M835,29.3c0.8,0,1.5-0.7,1.5-1.5v-2v-2.4v-0.8v-0.8v-0.6c0-0.8-0.7-1.5-1.5-1.5s-1.5,0.7-1.5,1.5v0.6v0.8
		v0.8v2.4v2C833.5,28.6,834.2,29.3,835,29.3z"/>
	<path fill="#FFFFFF" d="M851.1,29.3c0.8,0,1.5-0.7,1.5-1.5v-2v-2.4v-0.8v-0.8v-0.6c0-0.8-0.7-1.5-1.5-1.5s-1.5,0.7-1.5,1.5v0.6v0.8
		v0.8v2.4v2C849.5,28.6,850.2,29.3,851.1,29.3z"/>
</g>
</svg>
