<?xml version="1.0" encoding="utf-8"?>
<!-- Generator: Adobe Illustrator 19.0.1, SVG Export Plug-In . SVG Version: 6.00 Build 0)  -->
<!DOCTYPE svg PUBLIC "-//W3C//DTD SVG 1.1//EN" "http://www.w3.org/Graphics/SVG/1.1/DTD/svg11.dtd">
<svg version="1.1" id="Layer_1" xmlns="http://www.w3.org/2000/svg" xmlns:xlink="http://www.w3.org/1999/xlink" x="0px" y="0px"
	 viewBox="798 3 93.2 93.4" enable-background="new 798 3 93.2 93.4" xml:space="preserve">
<linearGradient id="SVGID_1_" gradientUnits="userSpaceOnUse" x1="895.6479" y1="72.1299" x2="804.8674" y2="39.0884" gradientTransform="matrix(1 0 0 -1 0 100)">
	<stop  offset="0" style="stop-color:#EE852E"/>
	<stop  offset="1" style="stop-color:#E95E24"/>
</linearGradient>
<path fill="url(#SVGID_1_)" d="M878.8,70.9c-12.3,18.2-30.2,24.4-34.2,25.5c-4-1.2-21.9-7.3-34.2-25.5c-6.4-9.5-13.7-26.9-12.2-55.8
	c3.7-2.6,19-12.1,46.4-12.1c27.3,0,42.6,9.5,46.4,12.1C892.5,43.9,885.3,61.3,878.8,70.9z"/>
<g>
	<g>
		<path fill="none" d="M824.9,34.7l9.2,20.6l8.3-12.9l3,5l10.7-18.7l7.4,13.8l18.8-20.2c0-0.5,0-1-0.1-1.4c-3-2.1-15.4-9.8-37.6-9.8
			c-22.2,0-34.6,7.7-37.6,9.8c-0.7,13.7,1,24.2,3.6,32.1l3-0.6L824.9,34.7z"/>
		<path fill="none" d="M855.9,36.6L845.4,55l-3.2-5.4l-8.8,13.7l-9.2-20.5l-8.3,13l-4,0.8c1.5,3.8,3.3,6.9,4.9,9.4
			c10,14.8,24.5,19.7,27.7,20.7c3.2-1,17.7-5.9,27.7-20.7c4.7-7,10-19.4,10-39.2L862.6,49L855.9,36.6z"/>
		<path fill="#FFFFFF" d="M881.2,23.3l-17.8,19.2L856,28.7l-10.7,18.7l-3-5L834,55.3l-9.2-20.6l-11.2,17.6l-2,0.6
			c0.4,1.3,0.9,2.6,1.3,3.7l3-0.8l8.3-13l9.2,20.5l8.8-13.7l3.2,5.4l10.5-18.4l6.6,12.4l18.8-21.1C881.3,26.4,881.3,24.8,881.2,23.3
			z"/>
		<path fill="#FFFFFF" d="M886.6,22.1c0-0.8-0.1-1.7-0.1-2.5l-0.1-0.9l-0.5-0.4l-0.3-0.2c-0.6-0.5-13.7-11.3-41-11.4l0,0
			c-0.1,0-0.1,0-0.2,0c-0.1,0-0.1,0-0.2,0l0,0c-27.2,0.1-40.4,10.9-41,11.4l-0.7,0.6l-0.1,0.9c-0.9,14.5,0.8,25.7,3.5,34.2
			c0.4,1.3,0.9,2.6,1.3,3.8c1.8,4.5,3.8,8.2,5.7,11c6.4,9.4,14.4,15.1,20,18.2c5.2,2.9,9.8,4.3,11.2,4.5l0,0c0,0,0.1,0,0.2,0
			c0.1,0,0.1,0,0.2,0l0,0c1.3-0.2,5.9-1.7,11.2-4.5c5.6-3.1,13.7-8.7,20-18.2C881.4,60.4,887.6,45.8,886.6,22.1z M872.3,66
			c-10,14.8-24.5,19.7-27.7,20.7c-3.2-1-17.7-5.9-27.7-20.7c-1.7-2.5-3.4-5.6-4.9-9.4c-0.5-1.2-0.9-2.4-1.3-3.7
			c-2.6-7.9-4.3-18.4-3.6-32.1c3-2.1,15.4-9.8,37.6-9.8c22.2,0,34.6,7.7,37.6,9.8c0,0.5,0,1,0.1,1.4c0.1,1.6,0.1,3.1,0.1,4.6
			C882.4,46.6,877.1,59,872.3,66z"/>
	</g>
	<g>
		<path fill="none" stroke="#FFFFFF" stroke-width="0.4852" stroke-miterlimit="10" d="M822.7,26.7"/>
		<rect x="822.3" y="38.2" fill="#FFFFFF" width="46.1" height="0.5"/>
		<rect x="822.3" y="61.7" fill="#FFFFFF" width="46.1" height="0.5"/>
		<rect x="822.3" y="55.8" fill="#FFFFFF" width="46.1" height="0.5"/>
		<rect x="822.3" y="50" fill="#FFFFFF" width="46.1" height="0.5"/>
		<rect x="822.3" y="44.1" fill="#FFFFFF" width="46.1" height="0.5"/>
		<rect x="822.3" y="32.3" fill="#FFFFFF" width="46.1" height="0.5"/>
		<g>
			<rect x="827.4" y="26.7" fill="#FFFFFF" width="0.5" height="35.3"/>
		</g>
		<g>
			<rect x="833.3" y="26.7" fill="#FFFFFF" width="0.5" height="35.3"/>
			<rect x="845.1" y="26.7" fill="#FFFFFF" width="0.5" height="35.3"/>
			<path fill="none" stroke="#FFFFFF" stroke-width="0.4852" stroke-miterlimit="10" d="M868.8,62"/>
			<rect x="862.7" y="26.7" fill="#FFFFFF" width="0.5" height="35.3"/>
			<rect x="856.8" y="26.7" fill="#FFFFFF" width="0.5" height="35.3"/>
			<rect x="850.9" y="26.7" fill="#FFFFFF" width="0.5" height="35.3"/>
			<rect x="839.2" y="26.7" fill="#FFFFFF" width="0.5" height="35.3"/>
		</g>
		<path fill="#FFFFFF" d="M868.6,62.2H822V26.4h46.6V62.2z M822.5,61.7h45.6V26.9h-45.6V61.7z"/>
	</g>
</g>
</svg>
