<?xml version="1.0" encoding="utf-8"?>
<!-- Generator: Adobe Illustrator 19.0.1, SVG Export Plug-In . SVG Version: 6.00 Build 0)  -->
<!DOCTYPE svg PUBLIC "-//W3C//DTD SVG 1.1//EN" "http://www.w3.org/Graphics/SVG/1.1/DTD/svg11.dtd">
<svg version="1.1" id="Layer_1" xmlns="http://www.w3.org/2000/svg" xmlns:xlink="http://www.w3.org/1999/xlink" x="0px" y="0px"
	 viewBox="0 0 93.1 93.5" enable-background="new 0 0 93.1 93.5" xml:space="preserve">
<linearGradient id="SVGID_1_" gradientUnits="userSpaceOnUse" x1="0" y1="46.7329" x2="93.1379" y2="46.7329">
	<stop  offset="0" style="stop-color:#662D91"/>
	<stop  offset="1" style="stop-color:#833996"/>
</linearGradient>
<path fill="url(#SVGID_1_)" d="M80.8,67.9C68.5,86.2,50.6,92.3,46.6,93.5c-4-1.2-21.9-7.3-34.2-25.5C5.9,58.4-1.3,41,0.2,12.1
	C3.9,9.5,19.2,0,46.6,0c27.3,0,42.6,9.5,46.4,12.1C94.5,41,87.2,58.4,80.8,67.9z"/>
<path fill="#FFFFFF" d="M88.2,16.5l-0.1-0.9L87.4,15c-0.6-0.5-13.7-11.3-41-11.4v0c-0.1,0-0.1,0-0.2,0c-0.1,0-0.1,0-0.2,0v0
	C18.9,3.7,5.8,14.5,5.2,15l-0.7,0.6l-0.1,0.9C2.9,41.7,9.3,57,15,65.4c6.4,9.4,14.4,15.1,20,18.2c5.2,2.9,9.8,4.3,11.2,4.5v0
	c0,0,0.1,0,0.2,0c0.1,0,0.1,0,0.2,0v0c1.3-0.2,5.9-1.7,11.2-4.5c5.6-3.1,13.7-8.7,20-18.2C83.3,57,89.7,41.7,88.2,16.5z M74,63
	C64,77.8,49.5,82.7,46.3,83.7c-3.2-1-17.7-5.9-27.7-20.7c-5.2-7.7-11.1-21.8-9.9-45.2c3-2.1,15.4-9.8,37.6-9.8
	c22.2,0,34.6,7.7,37.6,9.8C85.1,41.2,79.2,55.3,74,63z"/>
<g>
	<path fill="#FFFFFF" d="M44.8,18.7c0.2,0.1,0.9,0.3,1.1,0.2l0,0c0.3-0.1,0.4-1.1,0.2-2c-0.3-1.2-1.3-2.8-2.1-3.1
		c-0.1,0-0.4,0-0.6,0c-0.2,0-0.3,0.1-0.4,0.1c-0.5,0.3-0.3,1.4,0.5,3C43.9,17.7,44.4,18.5,44.8,18.7z"/>
	<path fill="#FFFFFF" d="M41,21.6c0.5-0.1,1.2-0.5,1.8-0.9c0.2-0.1,0.3-0.2,0.5-0.3c0.4-0.2,0.7-0.5,1-0.7c0,0-0.1,0-0.1-0.1
		c-0.9-0.5-1.8-2.3-2-2.9c0,0-0.4-1-0.6-1.9c-1.3,0.7-2.9,1.7-3.8,2.8c0.2,1.2,1.5,3.1,2.3,3.6C40.3,21.6,40.6,21.6,41,21.6z"/>
	<path fill="#FFFFFF" d="M36.6,18.5c-0.9,0.4-1.5,0.6-2.1,0.5c-0.2,0-0.4-0.2-0.6-0.3c-0.1-0.1-0.3-0.2-0.4-0.2c0,0-0.1,0-0.1,0
		c-0.7,0.1-1.7,1.2-2.1,1.7l-0.6,0.6c-1,1.1-1.9,2.1-2.8,3.4c-0.2,0.3-0.4,0.5-0.6,0.7c-0.5,0.6-1,1.1-0.8,1.7l0,0.2l-0.1,0.1
		c-2.9,3.2-4.6,7.4-5.3,12.6c0,0,0.1,0,0.1,0c0.2,0.1,0.4,0.1,0.6,0.1c0.7-5.2,2.6-8.9,5.9-11.6l0.1-0.1l0.1,0c0,0,0.1,0,0.2,0
		c0.2,0,0.5,0,0.7,0.3l0.1,0.2l-0.1,0.1c-0.3,0.5-0.6,0.9-0.9,1.4c-0.9,1.4-1.7,2.7-2.3,4.1c-0.8,2-1.4,4-1.6,5.9
		c0.3,0.1,0.6,0.1,0.9,0c0.2-0.5,0.3-1,0.5-1.5c0.3-0.9,0.6-1.9,1-2.8c0.3-0.6,0.7-1.3,1.1-2.1c0.4-0.6,0.9-1.5,1.5-2l0.2-0.1
		c0.3-0.2,0.5-0.5,0.8-0.6c0.5-0.2,0.8,0,1.1,0.2c0.1,0.1,0.3,0.1,0.4,0.2c0.2,0.1,0.5,0,0.8,0c0.3,0,0.7,0,1.1,0.1
		c0.7,0.2,1.3,0.7,1.8,1.2c0.1,0.1,0.2,0.2,0.4,0.4c0,0,0,0,0,0c0.1-0.2,0.3-0.6,0.6-1c0.1-0.1,0.2-0.2,0.2-0.3
		c0.1-0.1,0.2-0.2,0.2-0.3c0.1-0.1,0.2-0.2,0.2-0.3c0.4-0.4,0.8-0.8,1.3-1.2c0.1-0.1,0.2-0.2,0.4-0.3c0.2-0.1,0.4-0.2,0.6-0.4
		c-0.2-0.3-0.5-0.6-0.7-0.8c-0.4-0.4-0.8-0.8-1.1-1.3c-0.4-1-0.5-2-0.1-2.8c0.3-0.8,0.9-1.4,1.8-1.9c0,0-0.1,0-0.1-0.1
		c0,0-0.1-0.1-0.1-0.1c-0.1,0-0.1-0.1-0.2-0.1c0,0-0.1-0.1-0.1-0.1c-0.1-0.1-0.1-0.1-0.2-0.2c0,0-0.1-0.1-0.1-0.1
		c-0.1-0.1-0.1-0.1-0.2-0.2c0,0-0.1-0.1-0.1-0.1c-0.1-0.1-0.1-0.2-0.2-0.2c0,0-0.1-0.1-0.1-0.1c-0.1-0.1-0.1-0.2-0.2-0.3
		c0,0-0.1-0.1-0.1-0.1c-0.2-0.3-0.4-0.6-0.5-0.9L37,19.5C36.9,19.2,36.7,18.8,36.6,18.5z"/>
	<path fill="#FFFFFF" d="M36.5,31.6C36.5,31.6,36.5,31.6,36.5,31.6c0.1-0.1,0.2-0.2,0.2-0.3C36.7,31.4,36.6,31.5,36.5,31.6z"/>
	<polygon fill="#FFFFFF" points="37,19.5 37,19.6 37,19.5 	"/>
	<path fill="#FFFFFF" d="M57.8,49.8c-0.4-0.5-0.7-1.1-1-1.7c-0.3-0.6-0.7-1.2-1.1-1.8c-0.1-0.2-0.3-0.4-0.5-0.6
		c-0.2-0.2-0.3-0.3-0.4-0.5c-0.2-0.3-0.4-0.5-0.7-0.8l-4.2,5.5c1.4,1.4,2.8,2.5,4.2,3.6c1.2,0.9,2.3,2,3.3,3.2
		c1,1.1,2.1,2.3,3.1,3.7c0.6,0.8,1.1,1.7,1.7,2.6c0.2,0.4,0.4,0.7,0.7,1.1c0-0.2,0.1-0.3,0.1-0.5c0,0,0-0.1,0.1-0.2
		c0.5-1.3,2.3-3,3.9-3.7c0.2-0.1,0.4-0.2,0.6-0.2c0.2-0.1,0.4-0.1,0.6-0.2c-2.4-2.2-4.7-4.2-6.8-6C60.1,52.4,58.8,51.3,57.8,49.8z"
		/>
	<path fill="#FFFFFF" d="M64.2,64c-0.1,0.3-0.2,0.7-0.1,1.1c1-0.2,1.8-0.8,2.1-1.1l0.1-0.1c0.6-0.5,1.1-0.9,1.4-1.4
		c0.4-0.6,0.8-1.3,0.7-1.9c-0.4,0.1-0.7,0.2-1.1,0.3C66.1,61.6,64.6,63.1,64.2,64z"/>
	<path fill="#FFFFFF" d="M40.4,31.3c-0.2-0.3-0.5-0.6-0.7-0.9c-1.1,0.6-2,1.7-2.4,2.3c-0.4,0.5-0.5,0.8-0.5,0.9
		c0.1,0.1,0.2,0.2,0.3,0.2c0.1,0.1,0.3,0.2,0.3,0.3c1.1,1.2,2.2,2.5,3.1,3.6c0.8,0.9,1.5,1.8,2.3,2.7l2.8-3.7
		c-1.8-1.6-3.3-3.3-4.6-4.8C40.7,31.7,40.6,31.5,40.4,31.3z"/>
	<path fill="#FFFFFF" d="M66.1,26.5L66.1,26.5c-0.2,0-2.8,0.3-5.2-1.5c-2.4-1.8-2.3-4.8-2.3-4.9l0-0.1l5.3-4.7
		c-2.5-0.6-5.2-0.3-7.4,0.9c-2.3,1.2-3.9,3.2-4.5,5.6c-0.6,2.3-0.2,4.6,1.1,6.6l0,0.1l0.1,0.2L36.5,51l-0.2,0c-2-0.2-4,0.2-5.7,1
		c-4.1,2.1-5.9,6.6-4.4,10.6l5.9-5.3l0.1,0c0.1,0,2.7-0.3,5.1,1.5c2.4,1.8,2.3,4.8,2.3,4.9l0,0.1l-5.4,4.8c2.1,0.3,4.1-0.1,5.9-1
		c2.2-1.1,3.8-3,4.5-5.3c0.7-2.2,0.5-4.6-0.7-6.7L44,55.6l4.6-5.9l5.2-7l7.3-10l0.2,0c2.3,0.1,3.9-0.2,5.3-1
		c3.6-1.9,5.3-5.8,4.5-9.5L66.1,26.5z"/>
	<path fill="#FFFFFF" d="M45.4,45.1l-0.2,0.5l0.2,0.2c0,0,0.1,0.1,0.1,0.1l0.2-0.2c0,0-0.1-0.1-0.1-0.1c0,0,0,0,0-0.1
		c0,0.1,0.1,0.1,0.1,0.2l-0.2,0.2l1.4,1.1l-1-1.5l-0.3-0.4l0,0.1L45.4,45.1z"/>
	<path fill="#FFFFFF" d="M45.5,45.5c0,0,0.1,0.1,0.1,0.1C45.6,45.6,45.5,45.5,45.5,45.5C45.5,45.5,45.5,45.5,45.5,45.5z"/>
</g>
</svg>
