<?xml version="1.0" encoding="utf-8"?>
<!-- Generator: Adobe Illustrator 19.0.1, SVG Export Plug-In . SVG Version: 6.00 Build 0)  -->
<!DOCTYPE svg PUBLIC "-//W3C//DTD SVG 1.1//EN" "http://www.w3.org/Graphics/SVG/1.1/DTD/svg11.dtd">
<svg version="1.1" id="Layer_1" xmlns="http://www.w3.org/2000/svg" xmlns:xlink="http://www.w3.org/1999/xlink" x="0px" y="0px"
	 viewBox="186.7 3 93.2 93.4" enable-background="new 186.7 3 93.2 93.4" xml:space="preserve">
<linearGradient id="SVGID_1_" gradientUnits="userSpaceOnUse" x1="186.7017" y1="52.3" x2="279.8982" y2="52.3" gradientTransform="matrix(1 0 0 -1 0 102)">
	<stop  offset="0" style="stop-color:#F4AD1F"/>
	<stop  offset="1" style="stop-color:#F6C620"/>
</linearGradient>
<path fill="url(#SVGID_1_)" d="M267.5,70.9c-12.3,18.2-30.2,24.4-34.2,25.5c-4-1.2-21.9-7.3-34.2-25.5c-6.4-9.5-13.7-26.9-12.2-55.8
	c3.7-2.6,19-12.1,46.4-12.1c27.3,0,42.6,9.5,46.4,12.1C281.2,43.9,273.9,61.3,267.5,70.9z"/>
<path fill="#FFFFFF" d="M274.9,19.3l-0.1-0.9l-0.7-0.6c-0.6-0.5-13.7-11.3-41-11.4l0,0c-0.1,0-0.1,0-0.2,0s-0.1,0-0.2,0l0,0
	c-27.2,0.1-40.4,10.9-41,11.4l-0.7,0.6l-0.1,0.9c-1.6,25.2,4.9,40.5,10.5,48.9c6.4,9.4,14.4,15.1,20,18.2c5.2,2.9,9.8,4.3,11.2,4.5
	l0,0c0,0,0.1,0,0.2,0s0.1,0,0.2,0l0,0c1.3-0.2,5.9-1.7,11.2-4.5c5.6-3.1,13.7-8.7,20-18.2C270,59.8,276.4,44.5,274.9,19.3z
	 M260.7,65.8c-10,14.8-24.5,19.7-27.7,20.7c-3.2-1-17.7-5.9-27.7-20.7c-5.2-7.7-11.1-21.8-9.9-45.2c3-2.1,15.4-9.8,37.6-9.8
	s34.6,7.7,37.6,9.8C271.8,43.9,265.9,58,260.7,65.8z"/>
<circle fill="#FFFFFF" cx="247.6" cy="28.5" r="6.9"/>
<path fill="#FFFFFF" d="M256.8,41c-1.2-5.2-3.3-6.5-3.3-6.5c-1.3,1.6-3.6,2.7-5.9,2.7c-2.2,0-4.4-1.1-5.6-2.7
	c-0.1,0.1-1.7,1.6-2.5,4c0,0.1,1.5,5.2,2,8.7c0.7,4.4,0.6,11.5,0.7,11.5c1.5,0.3,3.3,0.5,5.3,0.5c4.8-0.1,10.4-1.5,10.4-1.5
	S257.9,45.6,256.8,41z"/>
<circle fill="#FFFFFF" cx="226.3" cy="27.1" r="9.2"/>
<path fill="#FFFFFF" d="M238.6,43.5c-1.7-6.9-4.5-8.7-4.5-8.7c-1.7,2.2-4.8,3.6-7.8,3.6s-5.9-1.5-7.5-3.6c-0.1,0.2-3.3,3.9-4.5,8.7
	c-1.2,5.1-0.3,24.6-0.3,24.6s5.6,2.1,12.1,2c6.4-0.1,13.8-2,13.8-2S240.6,51.5,238.6,43.5z"/>
<g>
	<polygon fill="#F4AC1F" points="234.7,51.1 232.7,54.8 229,52.8 229,57.2 224.5,57.2 224.5,52.8 220.8,54.8 218.8,51.1 222.4,49.1 
		218.8,46.9 221,43.4 224.6,45.4 224.6,41.2 229,41.2 229,45.4 232.5,43.4 234.7,46.9 231.1,49.1 	"/>
	<path fill="#FFFFFF" d="M227,55.4v0.4l0,0l0.1-0.6C227.2,55.2,227,55.4,227,55.4z"/>
	<path fill="#FFFFFF" d="M226.6,47.3c0-0.3,0-0.8-0.1-0.8c-0.5-0.8-0.3-1.8,0-1.8c0.2,0.1,0.7,0.2,0.8,0l0,0c0,0-0.2,0-0.2-0.1
		c0,0,0.2,0.1,0.2,0c0.1-0.1-0.2-0.2-0.3-0.3c-0.4-0.5-1,0-1.3,0.4c-0.4,0.5-0.3,1-0.1,1.4c0,0.1,0.3,0.6,0.6,0.9
		C226.4,47.1,226.6,47.4,226.6,47.3z M226.8,44.3h0.1C226.9,44.4,226.8,44.4,226.8,44.3c0,0.1-0.2,0.1-0.2,0
		C226.6,44.3,226.7,44.3,226.8,44.3z"/>
	<path fill="#FFFFFF" d="M227.3,54.3c0,0.8-0.2,0.8-0.4,1.1c0,0.1,0.7-0.3,0.5-0.9C227.4,54.4,227.3,54.2,227.3,54.3z"/>
	<path fill="#FFFFFF" d="M226.6,44.9l0.2,3.7c0,0.2,0.6-0.6,0.6-0.8l0.1-3.1C227.4,45.1,226.6,44.8,226.6,44.9z"/>
	<path fill="#FFFFFF" d="M227.2,44.3c0.1,0.1,0.3,0.1,0.3,0.2v-1.3c0-0.5-0.8-0.6-0.9,0V44C226.6,44.2,226.9,43.9,227.2,44.3z"/>
	<path fill="#FFFFFF" d="M227.4,50.9c0,0.4-0.1,0.8-0.3,1.1c-0.4,0.4-0.7,0.8-0.5,1.4c0.3,1.6,0.3,0.5,0.3,0.4
		c-0.1-1.2,0.4-1.2,0.9-2C227.8,51.7,227.7,51.2,227.4,50.9L227.4,50.9z"/>
	<path fill="#FFFFFF" d="M227.5,46.9v0.9c0,0.4-1.1,1.2-1.2,1.9c0,0.2-0.1,0.5,0.1,0.9c0,0.1,0.3,0.6,0.4,0.5c0-0.2,0-0.7,0-0.9
		c-0.1-0.8,1-1.3,1.3-2.1C228.2,47.6,228.1,47.3,227.5,46.9z"/>
	<path fill="#FFFFFF" d="M227.2,54.7v-2.1c0-0.1-0.4,0.4-0.4,0.5l0.1,2C227,55.1,227.2,54.9,227.2,54.7z"/>
	<path fill="#FFFFFF" d="M227.3,51.2v-2c0-0.1-0.5,0.4-0.5,0.7v2.2C226.8,52.3,227.2,51.7,227.3,51.2z"/>
</g>
</svg>
