<?xml version="1.0" encoding="utf-8"?>
<!-- Generator: Adobe Illustrator 19.0.1, SVG Export Plug-In . SVG Version: 6.00 Build 0)  -->
<!DOCTYPE svg PUBLIC "-//W3C//DTD SVG 1.1//EN" "http://www.w3.org/Graphics/SVG/1.1/DTD/svg11.dtd">
<svg version="1.1" id="Layer_1" xmlns="http://www.w3.org/2000/svg" xmlns:xlink="http://www.w3.org/1999/xlink" x="0px" y="0px"
	 viewBox="797.3 4 93.2 93.4" enable-background="new 797.3 4 93.2 93.4" xml:space="preserve">
<linearGradient id="SVGID_1_" gradientUnits="userSpaceOnUse" x1="890.5233" y1="49.3" x2="797.3017" y2="49.3" gradientTransform="matrix(1 0 0 -1 0 100)">
	<stop  offset="0" style="stop-color:#B11F8E"/>
	<stop  offset="4.605567e-02" style="stop-color:#AE208E"/>
	<stop  offset="0.3558" style="stop-color:#A1238F"/>
	<stop  offset="0.6716" style="stop-color:#99258F"/>
	<stop  offset="1" style="stop-color:#97268F"/>
</linearGradient>
<path fill="url(#SVGID_1_)" d="M878.1,71.9c-12.3,18.2-30.2,24.4-34.2,25.5c-4-1.2-21.9-7.3-34.2-25.5c-6.4-9.5-13.7-26.9-12.2-55.8
	c3.7-2.6,19-12.1,46.4-12.1c27.3,0,42.6,9.5,46.4,12.1C891.9,45,884.6,62.4,878.1,71.9z"/>
<path fill="#FFFFFF" d="M885.8,20.5l-0.1-0.9L885,19c-0.6-0.5-13.7-11.3-41-11.4l0,0c-0.1,0-0.1,0-0.2,0c-0.1,0-0.1,0-0.2,0l0,0
	c-27.2,0.1-40.4,10.9-41,11.4l-0.7,0.6l-0.1,0.9c-1.6,25.2,4.9,40.5,10.5,48.9c6.4,9.4,14.4,15.1,20,18.2c5.2,2.9,9.8,4.3,11.2,4.5
	l0,0c0,0,0.1,0,0.2,0c0.1,0,0.1,0,0.2,0l0,0c1.3-0.2,5.9-1.7,11.2-4.5c5.6-3.1,13.7-8.7,20-18.2C880.9,61.1,887.3,45.8,885.8,20.5z
	 M871.6,67c-10,14.8-24.5,19.7-27.7,20.7c-3.2-1-17.7-5.9-27.7-20.7c-5.2-7.7-11.1-21.8-9.9-45.2c3-2.1,15.4-9.8,37.6-9.8
	c22.2,0,34.6,7.7,37.6,9.8C882.7,45.2,876.8,59.3,871.6,67z"/>
<path fill="#FFFFFF" d="M836.6,64.7h-9.4c-0.2,0-0.3-0.1-0.3-0.3v-42c0-0.2,0.1-0.3,0.3-0.3h24v10.1h9.1v17.5c0.3,0.5,0.7,1.1,1,1.7
	c0.4,0,0.8-0.1,1.2-0.1c0.7,0,1.4-0.1,2.2-0.1v-24l-9.7-9.5h-27.8c-2.6,0-4.7,2.1-4.7,4.7v42c0,2.6,2.1,4.7,4.7,4.7h15.7
	c-1.3-0.8-2.4-1.5-3.4-2.2C838.2,66,837.3,65.3,836.6,64.7z"/>
<path fill="#FFFFFF" d="M853.7,34h-21.2c-1.2,0-2.2,1-2.2,2.2s1,2.2,2.2,2.2h21.2c1.2,0,2.2-1,2.2-2.2C855.9,34.9,854.9,34,853.7,34
	z"/>
<path fill="#FFFFFF" d="M853.7,40.5h-21.2c-1.2,0-2.2,1-2.2,2.2s1,2.2,2.2,2.2h21.2c1.2,0,2.2-1,2.2-2.2S854.9,40.5,853.7,40.5z"/>
<polygon fill="#FFFFFF" points="854,58.6 853.1,63.5 854.8,63.5 "/>
<path fill="#FFFFFF" d="M869.8,55.5c-0.5-0.9-10.9,0.1-10.9,0.1s-5.1-9.2-6.3-8.9c-1.2,0.3-3.3,10.4-3.3,10.4s-10.4,2.3-10.4,3.2
	c-0.1,0.9,8.9,6.3,8.9,6.3s-1.1,10.5-0.2,10.9c0.9,0.4,8.8-6.5,8.8-6.5s9.8,4.2,10.3,3.5c0.6-0.6-3.5-10.3-3.5-10.3
	S870.3,56.4,869.8,55.5z M862.3,62.7h-1.9v1.9H859v-1.9h-1.5l1.2,5h-3.2l-0.3-2h-2.4l-0.3,2h-3.1l2.8-11.5h3.8l1.2,5l0,0h1.9v-1.9
	h1.4v1.9h1.9v1.5H862.3z"/>
</svg>
