<?xml version="1.0" encoding="utf-8"?>
<!-- Generator: Adobe Illustrator 19.0.1, SVG Export Plug-In . SVG Version: 6.00 Build 0)  -->
<!DOCTYPE svg PUBLIC "-//W3C//DTD SVG 1.1//EN" "http://www.w3.org/Graphics/SVG/1.1/DTD/svg11.dtd">
<svg version="1.1" id="Layer_1" xmlns="http://www.w3.org/2000/svg" xmlns:xlink="http://www.w3.org/1999/xlink" x="0px" y="0px"
	 viewBox="-309 -20 140 140.8" enable-background="new -309 -20 140 140.8" xml:space="preserve">
<polygon fill="#219FA1" points="-169,67.6 -186.6,99.9 -218.9,82.5 -218.9,120.8 -259,120.8 -259,82.5 -291.3,99.9 -308.9,67.6 
	-277.5,49.6 -309,30.5 -289.5,-1 -258.3,16.6 -258.3,-20 -219.5,-19.9 -219.5,16.6 -188.4,-1 -169,30.5 -200.5,49.6 "/>
<path fill="#FFFFFF" d="M-236.7,108.4l0.3,3.7h0.4l0.6-5.1C-235.4,107-236.7,108.1-236.7,108.4z"/>
<path fill="#FFFFFF" d="M-240.6,33.9c-0.2-2.3-0.3-6.7-0.6-7.1c-4.6-7.4-2.5-16.3-0.1-15.6c1.7,0.6,6.6,1.5,7.3-0.1l0.1-0.2
	c0,0-1.7-0.3-1.7-0.6c0-0.3,1.4,0.6,2,0c0.7-1-1.7-1.7-2.6-2.8c-3.3-4.5-9.1,0.4-11.2,3.1c-3.3,4.1-2.5,9.1-1.2,12.6
	c0.2,0.6,2.4,5.1,5,8.1C-243,32.2-240.6,34.7-240.6,33.9z M-239.3,7.2c0.3,0,1.3,0.2,1.3,0.4c0,0.2-1.1,0.3-1.3,0.3
	c-0.2,0-1.4-0.1-1.4-0.3C-240.8,7.3-239.6,7.2-239.3,7.2z"/>
<path fill="#FFFFFF" d="M-234.4,97.9c0.4,7.2-2,7.2-3.3,9.5c-0.4,0.7,5.8-2.8,4.6-7.9C-233.2,98.9-234.4,97-234.4,97.9z"/>
<path fill="#FFFFFF" d="M-240.6,12.8l1.4,32.5c0.1,2,5.6-5.1,5.6-6.9l0.6-27.6C-233.1,14.7-240.6,12.2-240.6,12.8z"/>
<path fill="#FFFFFF" d="M-235.4,6.8c0.6,0.7,2.3,1.3,2.3,2.1V-2.4c0-4.7-7.2-5.2-7.5-0.1v6.8C-240.6,5.4-237.7,3.4-235.4,6.8z"/>
<path fill="#FFFFFF" d="M-233.4,67.7c-0.3,3.3-0.7,7.2-2.9,9.6c-3.5,3.7-5.8,7.1-4.8,12.6c2.6,13.7,2.3,4.2,2.3,3.8
	c-1-10.8,3.6-10.3,7.7-17.5c1.3-2.1,0.6-5.8-1.4-7.9L-233.4,67.7z"/>
<path fill="#FFFFFF" d="M-232.5,31l-0.1,7.8c0,3.8-9.4,10.6-10.8,16.7c-0.4,1.8-0.6,4.1,0.9,7.6c0.3,0.7,2.5,5,3.5,4.8
	c0.1-1.4,0-6.4-0.3-7.8c-1.2-6.9,9-11.6,11.7-18.4C-226,37.4-227.5,34.4-232.5,31z"/>
<path fill="#FFFFFF" d="M-235.1,101.5l0.4-18.5c0-0.6-3.2,4-3.2,4.7l0.8,17.5C-236.7,104.4-235.2,103.3-235.1,101.5z"/>
<path fill="#FFFFFF" d="M-234.5,69.6l0.3-17.3c0-1.1-4.3,3.7-4.3,6.1l0.2,19.2C-238.3,78.9-234.7,74-234.5,69.6z"/>
</svg>
